<svg width="854" height="301" viewBox="0 0 854 301" fill="none" xmlns="http://www.w3.org/2000/svg">
<path d="M261.986 183.427V173.741H239.878V167.424L263.39 133.945H270.69V166.863H277.778V173.741H270.69V183.427H261.986ZM261.986 166.863V144.614H263.671L246.616 168.968V166.863H261.986ZM300.141 184.129C294.339 184.129 289.87 181.929 286.735 177.531C283.6 173.086 282.032 166.769 282.032 158.581C282.032 150.299 283.6 144.005 286.735 139.7C289.87 135.396 294.339 133.243 300.141 133.243C305.99 133.243 310.458 135.396 313.546 139.7C316.681 144.005 318.249 150.275 318.249 158.51C318.249 166.746 316.681 173.086 313.546 177.531C310.458 181.929 305.99 184.129 300.141 184.129ZM300.141 176.689C303.322 176.689 305.685 175.238 307.229 172.337C308.774 169.389 309.546 164.78 309.546 158.51C309.546 152.24 308.774 147.702 307.229 144.894C305.685 142.04 303.322 140.613 300.141 140.613C297.006 140.613 294.643 142.04 293.052 144.894C291.508 147.702 290.736 152.24 290.736 158.51C290.736 164.78 291.508 169.389 293.052 172.337C294.643 175.238 297.006 176.689 300.141 176.689ZM346.156 183.427V173.741H324.047V167.424L347.559 133.945H354.859V166.863H361.948V173.741H354.859V183.427H346.156ZM346.156 166.863V144.614H347.84L330.785 168.968V166.863H346.156Z" fill="#667085"/>
<path d="M172.496 243.427V220.867H182.512C184.987 220.867 186.875 221.464 188.176 222.659C189.477 223.853 190.128 225.496 190.128 227.587C190.128 229.656 189.477 231.299 188.176 232.515C186.875 233.731 184.987 234.339 182.512 234.339H176.624V243.427H172.496ZM176.624 231.075H182.032C183.397 231.075 184.421 230.776 185.104 230.179C185.787 229.56 186.128 228.696 186.128 227.587C186.128 226.477 185.787 225.624 185.104 225.027C184.421 224.408 183.397 224.099 182.032 224.099H176.624V231.075ZM188.969 243.427L199.177 220.867H202.633L212.969 243.427H208.777L206.025 237.091L207.689 238.211H194.153L195.881 237.091L193.129 243.427H188.969ZM200.873 225.283L196.361 235.971L195.529 234.979H206.281L205.609 235.971L201.001 225.283H200.873ZM225.876 243.747C223.337 243.747 221.204 243.277 219.476 242.339C217.748 241.4 216.447 240.067 215.572 238.339C214.697 236.611 214.26 234.563 214.26 232.195C214.26 229.805 214.729 227.747 215.668 226.019C216.607 224.269 217.951 222.925 219.7 221.987C221.471 221.027 223.593 220.547 226.068 220.547C227.711 220.547 229.151 220.771 230.388 221.219C231.625 221.645 232.713 222.275 233.652 223.107L232.276 226.307C231.593 225.773 230.943 225.347 230.324 225.027C229.705 224.707 229.065 224.483 228.404 224.355C227.743 224.205 226.975 224.131 226.1 224.131C223.625 224.131 221.748 224.835 220.468 226.243C219.209 227.629 218.58 229.624 218.58 232.227C218.58 234.829 219.177 236.813 220.372 238.179C221.588 239.544 223.487 240.227 226.068 240.227C226.943 240.227 227.817 240.141 228.692 239.971C229.588 239.8 230.463 239.555 231.316 239.235L230.548 240.963V234.211H225.268V231.203H233.972V242.051C232.927 242.584 231.679 243 230.228 243.299C228.777 243.597 227.327 243.747 225.876 243.747ZM238.684 243.427V220.867H253.884V224.099H242.652V230.339H253.148V233.603H242.652V240.163H253.884V243.427H238.684ZM266.496 243.427V220.867H269.6L282.688 237.795H281.856V220.867H285.696V243.427H282.592L269.536 226.499H270.336V243.427H266.496ZM289.916 232.131C289.916 229.763 290.343 227.715 291.196 225.987C292.071 224.259 293.319 222.925 294.94 221.987C296.562 221.027 298.492 220.547 300.732 220.547C302.951 220.547 304.871 221.027 306.492 221.987C308.114 222.925 309.362 224.259 310.236 225.987C311.132 227.715 311.58 229.752 311.58 232.099C311.58 234.467 311.132 236.525 310.236 238.275C309.362 240.003 308.114 241.347 306.492 242.307C304.871 243.267 302.951 243.747 300.732 243.747C298.492 243.747 296.562 243.267 294.94 242.307C293.34 241.347 292.103 240.003 291.228 238.275C290.354 236.525 289.916 234.477 289.916 232.131ZM294.236 232.131C294.236 234.669 294.78 236.653 295.868 238.083C296.956 239.512 298.578 240.227 300.732 240.227C302.823 240.227 304.434 239.512 305.564 238.083C306.695 236.653 307.26 234.669 307.26 232.131C307.26 229.571 306.695 227.587 305.564 226.179C304.455 224.771 302.844 224.067 300.732 224.067C298.578 224.067 296.956 224.771 295.868 226.179C294.78 227.587 294.236 229.571 294.236 232.131ZM319.777 243.427V224.259H312.321V220.867H331.361V224.259H323.905V243.427H319.777ZM343.059 243.427V220.867H357.939V224.099H347.187V230.499H357.203V233.731H347.187V243.427H343.059ZM360.229 232.131C360.229 229.763 360.655 227.715 361.509 225.987C362.383 224.259 363.631 222.925 365.253 221.987C366.874 221.027 368.805 220.547 371.045 220.547C373.263 220.547 375.183 221.027 376.805 221.987C378.426 222.925 379.674 224.259 380.549 225.987C381.445 227.715 381.893 229.752 381.893 232.099C381.893 234.467 381.445 236.525 380.549 238.275C379.674 240.003 378.426 241.347 376.805 242.307C375.183 243.267 373.263 243.747 371.045 243.747C368.805 243.747 366.874 243.267 365.253 242.307C363.653 241.347 362.415 240.003 361.541 238.275C360.666 236.525 360.229 234.477 360.229 232.131ZM364.549 232.131C364.549 234.669 365.093 236.653 366.181 238.083C367.269 239.512 368.89 240.227 371.045 240.227C373.135 240.227 374.746 239.512 375.877 238.083C377.007 236.653 377.573 234.669 377.573 232.131C377.573 229.571 377.007 227.587 375.877 226.179C374.767 224.771 373.157 224.067 371.045 224.067C368.89 224.067 367.269 224.771 366.181 226.179C365.093 227.587 364.549 229.571 364.549 232.131ZM395.56 243.747C392.339 243.747 389.939 242.947 388.36 241.347C386.803 239.725 386.024 237.336 386.024 234.179V220.867H390.152V234.147C390.152 236.152 390.579 237.667 391.432 238.691C392.307 239.715 393.683 240.227 395.56 240.227C397.352 240.227 398.696 239.715 399.592 238.691C400.51 237.667 400.968 236.152 400.968 234.147V220.867H405.032V234.179C405.032 237.336 404.232 239.725 402.632 241.347C401.054 242.947 398.696 243.747 395.56 243.747ZM409.84 243.427V220.867H412.944L426.032 237.795H425.2V220.867H429.04V243.427H425.936L412.88 226.499H413.68V243.427H409.84ZM433.996 243.427V220.867H442.188C444.769 220.867 446.945 221.315 448.716 222.211C450.508 223.085 451.863 224.365 452.78 226.051C453.697 227.715 454.156 229.741 454.156 232.131C454.156 234.499 453.697 236.525 452.78 238.211C451.863 239.896 450.508 241.187 448.716 242.083C446.945 242.979 444.769 243.427 442.188 243.427H433.996ZM438.124 240.003H441.932C444.663 240.003 446.689 239.352 448.012 238.051C449.335 236.749 449.996 234.776 449.996 232.131C449.996 229.464 449.335 227.491 448.012 226.211C446.689 224.909 444.663 224.259 441.932 224.259H438.124V240.003Z" fill="#98A2B3"/>
<path d="M629.471 3.33034C632.193 2.57153 634.746 2.38183 637.468 2.38183C640.02 2.38183 642.743 2.57153 645.295 2.95093C647.848 3.33034 650.57 4.08915 653.122 5.41707C655.675 6.74499 658.227 8.64202 659.759 11.867L656.866 11.1082L659.929 8.45231C661.12 7.6935 662.141 6.74499 663.162 5.98618C665.374 4.46855 667.756 3.14063 670.308 2.19212C672.861 1.24361 675.413 0.484797 677.965 0.105391C680.688 -0.084312 683.24 -0.0843135 685.963 0.674498C686.473 0.864201 686.643 1.43331 686.473 1.81271C686.303 2.38182 685.963 2.57153 685.452 2.38183H685.282C683.07 1.81272 680.518 2.00242 678.136 2.38183C675.753 2.76123 673.371 3.70975 671.159 4.84796C668.947 5.98618 666.905 7.3141 664.863 8.83172C663.842 9.59053 662.821 10.539 661.971 11.2979L659.248 13.9537C658.397 14.7125 657.376 14.5228 656.696 13.764L656.526 13.9537L656.355 13.5743C655.675 11.4876 653.803 9.78024 651.761 8.64202C649.719 7.5038 647.337 6.55529 644.785 5.98618C642.403 5.41707 639.85 5.03767 637.298 4.84796C634.746 4.65826 632.193 4.65826 629.981 5.22737H629.811C629.301 5.41707 628.96 5.03766 628.79 4.46856C628.79 3.89945 628.96 3.33034 629.471 3.33034Z" fill="#AAB2C5"/>
<path d="M568.667 54.3029C570.709 53.7717 572.623 53.639 574.665 53.639C576.579 53.639 578.621 53.7717 580.535 54.0373C582.449 54.3029 584.491 54.8341 586.406 55.7636C588.32 56.6932 590.234 58.0211 591.383 60.2786L589.213 59.7474L591.51 57.8883C592.404 57.3571 593.169 56.6932 593.935 56.162C595.594 55.0997 597.381 54.1701 599.295 53.5062C601.209 52.8422 603.124 52.311 605.038 52.0455C607.08 51.9127 608.994 51.9127 611.036 52.4438C611.419 52.5766 611.546 52.975 611.419 53.2406C611.291 53.639 611.036 53.7717 610.653 53.639H610.525C608.866 53.2406 606.952 53.3734 605.165 53.639C603.379 53.9045 601.592 54.5685 599.933 55.3653C598.274 56.162 596.743 57.0915 595.211 58.1539C594.446 58.6851 593.68 59.349 593.042 59.8802L591 61.7393C590.362 62.2704 589.596 62.1376 589.086 61.6065L588.958 61.4737L588.83 61.2081C588.32 59.7474 586.916 58.5523 585.385 57.7555C583.853 56.9588 582.067 56.2948 580.152 55.8964C578.366 55.498 576.451 55.2325 574.537 55.0997C572.623 54.9669 570.709 54.9669 569.05 55.3653H568.922C568.539 55.498 568.284 55.2325 568.156 54.8341C568.156 54.7013 568.411 54.3029 568.667 54.3029Z" fill="#AAB2C5"/>
<path d="M207.918 3.33034C210.64 2.57153 213.193 2.38182 215.915 2.38182C218.468 2.38182 221.19 2.57153 223.743 2.95093C226.295 3.33034 229.017 4.08915 231.57 5.41707C234.122 6.74499 236.674 8.64202 238.206 11.867L235.313 11.1082L238.376 8.45232C239.567 7.6935 240.588 6.74499 241.609 5.98618C243.821 4.46856 246.203 3.14064 248.756 2.19212C251.308 1.24361 253.86 0.484795 256.413 0.105389C259.135 -0.0843139 261.688 -0.0843081 264.41 0.674503C264.921 0.864206 265.091 1.43331 264.921 1.81272C264.75 2.38183 264.41 2.57153 263.9 2.38182H263.729C261.517 1.81272 258.965 2.00242 256.583 2.38182C254.201 2.76123 251.818 3.70974 249.606 4.84796C247.394 5.98618 245.352 7.3141 243.311 8.83172C242.29 9.59053 241.269 10.539 240.418 11.2979L237.695 13.9537C236.845 14.7125 235.824 14.5228 235.143 13.764L234.973 13.5743L234.803 13.1949C234.122 11.1082 232.25 9.40083 230.209 8.26262C228.167 7.1244 225.784 6.17588 223.232 5.60677C220.85 5.03766 218.298 4.65826 215.745 4.46856C213.193 4.27886 210.64 4.27885 208.428 4.84796H208.258C207.748 5.03766 207.407 4.65826 207.237 4.08915C207.237 3.89945 207.578 3.33034 207.918 3.33034Z" fill="#AAB2C5"/>
<path d="M646.796 47.7502C649.518 47.0673 652.071 46.8966 654.793 46.8966C657.346 46.8966 660.068 47.0673 662.62 47.4088C665.173 47.7502 667.895 48.4332 670.448 49.6283C673 50.8234 675.552 52.5307 677.084 55.4332L674.191 54.7503L677.254 52.36C678.445 51.6771 679.466 50.8234 680.487 50.1405C682.699 48.7746 685.081 47.5795 687.634 46.7258C690.186 45.8722 692.738 45.1892 695.291 44.8478C698.013 44.677 700.565 44.677 703.288 45.36C703.798 45.5307 703.969 46.0429 703.798 46.3844C703.628 46.8966 703.288 47.0673 702.778 46.8966H702.607C700.395 46.3844 697.843 46.5551 695.461 46.8966C693.079 47.238 690.696 48.0917 688.484 49.1161C686.272 50.1405 684.23 51.3356 682.189 52.7015C681.168 53.3844 680.147 54.2381 679.296 54.921L676.573 57.3113C675.723 57.9942 674.702 57.8235 674.021 57.1405L673.851 56.9698L673.681 56.6283C673 54.7503 671.128 53.2137 669.086 52.1893C667.045 51.1649 664.662 50.3112 662.11 49.799C659.728 49.2868 657.175 48.9454 654.623 48.7746C652.071 48.6039 649.518 48.6039 647.306 49.1161H647.136C646.626 49.2868 646.285 48.9454 646.115 48.4332C646.115 48.2624 646.285 47.7502 646.796 47.7502Z" fill="#AAB2C5"/>
<path d="M486.201 84.0332L601.647 173.87H627.264" stroke="#D6DDE8" stroke-width="4" stroke-miterlimit="10"/>
<path d="M484.354 260.55L601.647 173.869" stroke="#D6DDE8" stroke-width="4" stroke-miterlimit="10"/>
<path d="M637.89 157.39L637.31 154.539C637.31 154.539 639.748 150.092 640.972 147.79C642.35 145.495 643.604 145.079 649.314 144.541C655.034 143.848 659.388 142.938 657.388 147.718C655.235 152.491 649.236 164.476 649.236 164.476L637.89 157.39Z" fill="url(#paint0_linear_2033_22940)"/>
<path d="M759.527 163.011L800.09 105.589C800.937 104.37 802.221 103.484 803.628 103.074C806.279 102.404 810.806 101.188 815.149 100.434C821.664 99.304 829.097 98.2137 826.026 105.302C822.944 112.546 803.212 160.982 803.212 160.982L759.527 163.011Z" fill="url(#paint1_linear_2033_22940)"/>
<path d="M635.894 150.296C636.358 150.316 656.536 169.27 656.536 169.27L725.45 158.022L764.304 158.775C764.304 158.775 797.101 157.306 807.146 157.753C817.192 158.2 830.535 160.42 831.604 167.951C832.673 175.481 835.506 177.234 831.136 180.13C826.921 183.033 810.174 195.302 787.321 193.96C764.469 192.617 737.317 197.916 737.317 197.916C737.317 197.916 737.205 194.82 729.786 194.49C722.368 194.16 630.825 181.14 630.825 181.14C630.825 181.14 615.659 180.79 617.59 165.097C619.676 149.411 624.756 149.963 628.012 149.945C631.433 149.772 635.894 150.296 635.894 150.296Z" fill="url(#paint2_linear_2033_22940)"/>
<path d="M632.536 165.666L646.953 166.292C646.953 166.292 638.268 179.139 635.159 181.996C632.049 184.852 626.046 189.63 620.259 188.749C614.472 187.868 616.068 184.631 617.849 180.93C619.629 177.229 621.676 171.807 621.676 171.807L632.536 165.666Z" fill="url(#paint3_linear_2033_22940)"/>
<path d="M788.774 189.536C777.158 186.201 769.383 185.234 755.63 188.727C741.877 192.22 736.471 194.974 736.471 194.974L708.216 243.927C706.478 246.998 708.54 250.705 711.912 250.852C718.665 250.987 728.566 250.001 734.32 244.273C743.539 234.921 788.774 189.536 788.774 189.536Z" fill="url(#paint4_linear_2033_22940)"/>
<path opacity="0.4" d="M848.197 172.78C848.136 173.716 848.075 174.651 848.024 175.431C846.107 193.173 836.697 206.835 826.229 206.379C818.492 206.042 812.173 197.948 809.729 186.428C808.81 181.853 808.367 176.986 808.712 171.685C808.722 171.529 808.743 171.217 808.753 171.062C809.505 159.524 813.351 149.528 818.764 143.509C822.215 139.594 826.473 137.278 830.873 137.469C831.176 137.483 831.328 137.489 831.631 137.503C840.997 138.536 847.951 150.879 848.604 166.543C848.32 168.564 848.339 170.597 848.197 172.78Z" fill="#D6DDE8"/>
<path fill-rule="evenodd" clip-rule="evenodd" d="M785.348 169.644C786.223 165.517 788.547 160.588 792.755 158.55L793.464 160.227C790.015 161.898 787.896 166.114 787.07 170.01L787.067 170.025C785.478 177.008 786.863 184.331 789.8 190.721C790.3 191.786 790.93 192.83 791.553 193.56L791.551 193.752C790.917 194.009 790.128 193.936 789.559 193.942C789.055 193.212 788.592 192.382 788.21 191.568L788.207 191.561C785.15 184.913 783.64 177.155 785.348 169.644Z" fill="#8C96A6"/>
<path d="M723.812 159.144L722.721 164.027L734.398 172.171L757.172 171.256C759.185 171.185 760.839 169.507 760.963 167.604L761.118 165.225L764.109 159.63L760.576 156.931C759.252 155.919 757.742 155.376 756.047 155.302L736.406 155.559C735.636 155.525 734.855 155.65 734.218 155.94L723.812 159.144Z" fill="#69768C"/>
<path fill-rule="evenodd" clip-rule="evenodd" d="M752.88 159.384L761.619 164.467L760.697 166.173L752.393 161.343L734.255 161.975L722.839 165.03L722.426 163.148L734.038 160.041L752.88 159.384Z" fill="#AAB2C5"/>
<path fill-rule="evenodd" clip-rule="evenodd" d="M753.847 155.699L752.645 165.471L753.582 171.139L751.852 171.5L750.87 165.557L752.106 155.505L753.847 155.699Z" fill="#AAB2C5"/>
<path d="M734.342 171.885L733.516 164.536L733.96 159.579L734.469 155.87" fill="white"/>
<path fill-rule="evenodd" clip-rule="evenodd" d="M734.821 159.665L735.348 155.975L733.614 155.744L733.08 159.481L732.606 164.57L733.478 172.029L735.219 171.758L734.371 164.501L734.821 159.665Z" fill="#AAB2C5"/>
<path opacity="0.6" d="M830.929 137.421L829.232 163.575L826.97 163.476L825.301 165.901L818.282 143.581C821.711 139.672 825.943 137.359 830.315 137.551C830.476 137.402 830.778 137.415 830.929 137.421Z" fill="white"/>
<path opacity="0.6" d="M848.538 172.955C848.477 173.898 848.415 174.841 848.363 175.626L838.522 175.514L838.676 173.157L836.323 171.48L848.796 166.664C848.662 168.706 848.682 170.756 848.538 172.955Z" fill="white"/>
<path opacity="0.6" d="M825.705 176.148L809.36 186.296C808.431 181.693 807.983 176.795 808.332 171.46L823.662 172.125L823.508 174.479L825.705 176.148Z" fill="white"/>
<path opacity="0.3" d="M733.787 198.985C738.397 198.559 743.78 198.01 743.78 198.01L719.943 237.848L711.23 237.94" fill="#69768C"/>
<path opacity="0.3" d="M769.273 148.903L777.813 149.274L803.495 109.65L797.243 109.378" fill="#69768C"/>
<path d="M788.569 176.955C789.16 176.981 789.672 176.511 789.711 175.906C789.751 175.3 789.304 174.789 788.712 174.763C788.121 174.738 787.609 175.207 787.57 175.813C787.53 176.418 787.977 176.93 788.569 176.955Z" fill="#69768C"/>
<path d="M789.315 183.365C789.906 183.391 790.418 182.921 790.457 182.316C790.497 181.711 790.05 181.199 789.458 181.173C788.867 181.148 788.356 181.618 788.316 182.223C788.276 182.828 788.724 183.34 789.315 183.365Z" fill="#69768C"/>
<path d="M791.473 189.541C792.065 189.567 792.576 189.097 792.616 188.492C792.655 187.886 792.208 187.375 791.617 187.349C791.025 187.324 790.514 187.793 790.474 188.399C790.435 189.004 790.882 189.516 791.473 189.541Z" fill="#69768C"/>
<path d="M789.544 170.325C790.136 170.351 790.647 169.881 790.687 169.276C790.726 168.671 790.279 168.159 789.688 168.133C789.097 168.108 788.585 168.578 788.545 169.183C788.506 169.788 788.953 170.3 789.544 170.325Z" fill="#69768C"/>
<path d="M792.81 164.441C793.401 164.466 793.913 163.996 793.953 163.391C793.992 162.786 793.545 162.274 792.954 162.249C792.362 162.223 791.851 162.693 791.811 163.298C791.771 163.903 792.219 164.415 792.81 164.441Z" fill="#69768C"/>
<path opacity="0.6" d="M826.32 206.282L827.264 180.089L829.528 180.188L831.199 177.763L838.84 199.959C835.397 204.025 831.311 206.344 827.074 206.315C826.773 206.302 826.622 206.295 826.32 206.282Z" fill="white"/>
<path d="M827.425 163.429C825.797 164.925 819.661 174.534 826.839 184.093C834.743 180.204 840.288 177.31 840.126 172.758C840.128 168.056 827.425 163.429 827.425 163.429Z" fill="#69768C"/>
<path d="M478.574 300.284H136.085C129.959 300.284 124.947 295.272 124.947 289.146V58.7785C124.947 52.6527 129.959 47.6406 136.085 47.6406H478.574C484.699 47.6406 489.711 52.6527 489.711 58.7785V288.96C489.897 295.272 484.885 300.284 478.574 300.284Z" fill="url(#paint5_linear_2033_22940)" fill-opacity="0.5"/>
<g filter="url(#filter0_d_2033_22940)">
<path d="M143.485 159.441C143.485 173.305 132.273 184.517 118.288 184.517C118.047 184.517 115.998 184.517 100.928 184.517C90.4397 184.517 73.6822 184.517 46.9185 184.517H34.1394C17.3819 184.878 4 171.496 4 155.342C4 139.066 17.5024 125.564 34.501 126.408C49.0885 80.8372 115.877 87.2268 121.544 134.365C134.081 135.932 143.485 146.541 143.485 159.441Z" fill="url(#paint6_linear_2033_22940)"/>
</g>
<path d="M118.29 184.515C132.154 184.515 143.487 173.303 143.487 159.439C143.487 145.575 132.154 134.363 118.29 134.363C104.426 134.363 93.0938 145.575 93.0938 159.439C93.0938 173.303 104.426 184.515 118.29 184.515Z" fill="url(#paint7_linear_2033_22940)"/>
<path d="M77.1794 184.757C101.894 184.757 122.027 164.745 122.027 140.031C122.027 115.316 101.894 95.3037 77.1794 95.3037C52.4651 95.3037 32.332 115.316 32.332 140.031C32.332 164.745 52.3446 184.757 77.1794 184.757Z" fill="url(#paint8_linear_2033_22940)"/>
<path d="M683.089 239.285C683.089 248.469 675.662 255.896 666.398 255.896C666.239 255.896 664.881 255.896 654.899 255.896C647.951 255.896 636.85 255.896 619.121 255.896H610.656C599.556 256.136 590.691 247.271 590.691 236.57C590.691 225.789 599.636 216.845 610.896 217.404C620.559 187.217 664.801 191.449 668.555 222.674C676.86 223.713 683.089 230.74 683.089 239.285Z" fill="url(#paint9_linear_2033_22940)"/>
<path d="M666.399 255.896C675.583 255.896 683.089 248.469 683.089 239.286C683.089 230.102 675.583 222.675 666.399 222.675C657.215 222.675 649.708 230.102 649.708 239.286C649.708 248.469 657.215 255.896 666.399 255.896Z" fill="url(#paint10_linear_2033_22940)"/>
<path d="M639.167 256.056C655.538 256.056 668.875 242.799 668.875 226.428C668.875 210.057 655.538 196.8 639.167 196.8C622.796 196.8 609.459 210.057 609.459 226.428C609.459 242.799 622.716 256.056 639.167 256.056Z" fill="url(#paint11_linear_2033_22940)"/>
<path d="M801.107 288.399C801.107 294.986 795.78 300.313 789.135 300.313C789.02 300.313 788.047 300.313 780.886 300.313C775.903 300.313 767.941 300.313 755.224 300.313H749.152C741.19 300.485 734.832 294.127 734.832 286.451C734.832 278.718 741.248 272.302 749.324 272.703C756.255 251.051 787.989 254.087 790.682 276.484C796.639 277.229 801.107 282.269 801.107 288.399Z" fill="url(#paint12_linear_2033_22940)"/>
<path d="M789.135 300.311C795.722 300.311 801.107 294.983 801.107 288.396C801.107 281.809 795.722 276.481 789.135 276.481C782.548 276.481 777.163 281.809 777.163 288.396C777.163 294.983 782.548 300.311 789.135 300.311Z" fill="url(#paint13_linear_2033_22940)"/>
<path d="M769.602 300.426C781.344 300.426 790.91 290.917 790.91 279.174C790.91 267.432 781.344 257.923 769.602 257.923C757.859 257.923 748.293 267.432 748.293 279.174C748.293 290.917 757.802 300.426 769.602 300.426Z" fill="url(#paint14_linear_2033_22940)"/>
<path d="M489.771 78.2867H125.007V59.099C125.007 52.5852 130.019 47.2559 136.145 47.2559H478.633C484.759 47.2559 489.771 52.5852 489.771 59.099V78.2867Z" fill="url(#paint15_linear_2033_22940)"/>
<path d="M142.59 68.4482C145.563 68.4482 147.974 66.038 147.974 63.0649C147.974 60.0918 145.563 57.6816 142.59 57.6816C139.617 57.6816 137.207 60.0918 137.207 63.0649C137.207 66.038 139.617 68.4482 142.59 68.4482Z" fill="#F7F9FF"/>
<path d="M158.926 68.4482C161.899 68.4482 164.31 66.038 164.31 63.0649C164.31 60.0918 161.899 57.6816 158.926 57.6816C155.953 57.6816 153.543 60.0918 153.543 63.0649C153.543 66.038 155.953 68.4482 158.926 68.4482Z" fill="#F7F9FF"/>
<path d="M175.26 68.4482C178.233 68.4482 180.644 66.038 180.644 63.0649C180.644 60.0918 178.233 57.6816 175.26 57.6816C172.287 57.6816 169.877 60.0918 169.877 63.0649C169.877 66.038 172.287 68.4482 175.26 68.4482Z" fill="#F7F9FF"/>
<defs>
<filter id="filter0_d_2033_22940" x="0.729429" y="91.0523" width="170.011" height="119.636" filterUnits="userSpaceOnUse" color-interpolation-filters="sRGB">
<feFlood flood-opacity="0" result="BackgroundImageFix"/>
<feColorMatrix in="SourceAlpha" type="matrix" values="0 0 0 0 0 0 0 0 0 0 0 0 0 0 0 0 0 0 127 0" result="hardAlpha"/>
<feOffset dx="11.9921" dy="10.9019"/>
<feGaussianBlur stdDeviation="7.63133"/>
<feColorMatrix type="matrix" values="0 0 0 0 0.397708 0 0 0 0 0.47749 0 0 0 0 0.575 0 0 0 0.07 0"/>
<feBlend mode="normal" in2="BackgroundImageFix" result="effect1_dropShadow_2033_22940"/>
<feBlend mode="normal" in="SourceGraphic" in2="effect1_dropShadow_2033_22940" result="shape"/>
</filter>
<linearGradient id="paint0_linear_2033_22940" x1="644.817" y1="148.016" x2="656.827" y2="151.472" gradientUnits="userSpaceOnUse">
<stop stop-color="#B0BACC"/>
<stop offset="1" stop-color="#969EAE"/>
</linearGradient>
<linearGradient id="paint1_linear_2033_22940" x1="785.237" y1="112.288" x2="823.253" y2="123.163" gradientUnits="userSpaceOnUse">
<stop stop-color="#B0BACC"/>
<stop offset="1" stop-color="#969EAE"/>
</linearGradient>
<linearGradient id="paint2_linear_2033_22940" x1="694.439" y1="162.091" x2="750.753" y2="233.557" gradientUnits="userSpaceOnUse">
<stop stop-color="#B0BACC"/>
<stop offset="1" stop-color="#969EAE"/>
</linearGradient>
<linearGradient id="paint3_linear_2033_22940" x1="627.624" y1="170.569" x2="644.712" y2="176.611" gradientUnits="userSpaceOnUse">
<stop stop-color="#B0BACC"/>
<stop offset="1" stop-color="#969EAE"/>
</linearGradient>
<linearGradient id="paint4_linear_2033_22940" x1="738.061" y1="199.522" x2="783.498" y2="214.652" gradientUnits="userSpaceOnUse">
<stop stop-color="#B0BACC"/>
<stop offset="1" stop-color="#969EAE"/>
</linearGradient>
<linearGradient id="paint5_linear_2033_22940" x1="307.213" y1="41.7967" x2="307.213" y2="303.008" gradientUnits="userSpaceOnUse">
<stop stop-color="white"/>
<stop offset="0.9964" stop-color="#D4DCE9"/>
</linearGradient>
<linearGradient id="paint6_linear_2033_22940" x1="73.7425" y1="132.237" x2="73.697" y2="185.484" gradientUnits="userSpaceOnUse">
<stop stop-color="white"/>
<stop offset="0.9964" stop-color="#ECF0F5"/>
</linearGradient>
<linearGradient id="paint7_linear_2033_22940" x1="90.4124" y1="128.964" x2="112.749" y2="153.394" gradientUnits="userSpaceOnUse">
<stop stop-color="#BCCBE1"/>
<stop offset="0.9942" stop-color="white" stop-opacity="0"/>
</linearGradient>
<linearGradient id="paint8_linear_2033_22940" x1="28.1325" y1="119.507" x2="63.3368" y2="133.283" gradientUnits="userSpaceOnUse">
<stop stop-color="#E2E8F0"/>
<stop offset="0.9942" stop-color="white" stop-opacity="0"/>
</linearGradient>
<linearGradient id="paint9_linear_2033_22940" x1="636.89" y1="221.265" x2="636.86" y2="256.537" gradientUnits="userSpaceOnUse">
<stop stop-color="white"/>
<stop offset="0.9964" stop-color="#ECF0F5"/>
</linearGradient>
<linearGradient id="paint10_linear_2033_22940" x1="647.932" y1="219.099" x2="662.728" y2="235.281" gradientUnits="userSpaceOnUse">
<stop stop-color="#BCCBE1"/>
<stop offset="0.9942" stop-color="white" stop-opacity="0"/>
</linearGradient>
<linearGradient id="paint11_linear_2033_22940" x1="606.677" y1="212.832" x2="629.997" y2="221.958" gradientUnits="userSpaceOnUse">
<stop stop-color="#E2E8F0"/>
<stop offset="0.9942" stop-color="white" stop-opacity="0"/>
</linearGradient>
<linearGradient id="paint12_linear_2033_22940" x1="767.969" y1="275.473" x2="767.948" y2="300.773" gradientUnits="userSpaceOnUse">
<stop stop-color="white"/>
<stop offset="0.9964" stop-color="#ECF0F5"/>
</linearGradient>
<linearGradient id="paint13_linear_2033_22940" x1="775.889" y1="273.916" x2="786.502" y2="285.524" gradientUnits="userSpaceOnUse">
<stop stop-color="#BCCBE1"/>
<stop offset="0.9942" stop-color="white" stop-opacity="0"/>
</linearGradient>
<linearGradient id="paint14_linear_2033_22940" x1="746.298" y1="269.423" x2="763.025" y2="275.968" gradientUnits="userSpaceOnUse">
<stop stop-color="#E2E8F0"/>
<stop offset="0.9942" stop-color="white" stop-opacity="0"/>
</linearGradient>
<linearGradient id="paint15_linear_2033_22940" x1="-3.39354" y1="78.4268" x2="477.966" y2="62.0395" gradientUnits="userSpaceOnUse">
<stop stop-color="#175CD3"/>
<stop offset="1" stop-color="#D5DDEA" stop-opacity="0"/>
</linearGradient>
</defs>
</svg>
