<svg width="24" height="24" viewBox="0 0 24 24" fill="none" xmlns="http://www.w3.org/2000/svg">
<path d="M0 0H21C22.6569 0 24 1.34315 24 3V21C24 22.6569 22.6569 24 21 24H0V0Z" fill="#175CD3"/>
<g clip-path="url(#clip0_409_638)">
<path d="M16.7146 8.69959L16.7146 7.59959L7.28602 7.59959L7.28602 8.69959L16.7146 8.69959ZM9.16964 16.4524L9.9103 15.6747L8.24354 13.9246L9.9103 12.1745L9.16964 11.3968L6.76221 13.9246L9.16964 16.4524ZM16.7146 12.5496L16.7146 11.4496L12.0003 11.4496L12.0003 12.5496L16.7146 12.5496ZM16.7146 16.3996L16.7146 15.2996L12.0003 15.2996L12.0003 16.3996L16.7146 16.3996Z" fill="white"/>
</g>
<defs>
<clipPath id="clip0_409_638">
<rect width="12.5714" height="13.2" fill="white" transform="matrix(1 -8.74228e-08 -8.74228e-08 -1 5.7146 18.5996)"/>
</clipPath>
</defs>
</svg>
