<svg width="24" height="24" viewBox="0 0 24 24" fill="none" xmlns="http://www.w3.org/2000/svg">
<path d="M0 3C0 1.34315 1.34315 0 3 0H24V24H3C1.34315 24 0 22.6569 0 21V3Z" fill="#175CD3"/>
<g clip-path="url(#clip0_408_50363)">
<path d="M7.28614 8.69959L7.28614 7.59959L16.7147 7.59959L16.7147 8.69959L7.28614 8.69959ZM14.8311 16.4524L14.0904 15.6747L15.7572 13.9246L14.0904 12.1745L14.8311 11.3968L17.2385 13.9246L14.8311 16.4524ZM7.28614 12.5496L7.28614 11.4496L12.0004 11.4496L12.0004 12.5496L7.28614 12.5496ZM7.28614 16.3996L7.28614 15.2996L12.0004 15.2996L12.0004 16.3996L7.28614 16.3996Z" fill="white"/>
</g>
<defs>
<clipPath id="clip0_408_50363">
<rect width="12.5714" height="13.2" fill="white" transform="translate(18.2861 18.5996) rotate(-180)"/>
</clipPath>
</defs>
</svg>
