<svg width="16" height="16" viewBox="0 0 16 16" fill="none" xmlns="http://www.w3.org/2000/svg">
<path d="M2.66797 4.66667C2.66797 4.29848 2.96645 4 3.33464 4H12.668C13.0362 4 13.3346 4.29848 13.3346 4.66667C13.3346 5.03486 13.0362 5.33333 12.668 5.33333H3.33464C2.96645 5.33333 2.66797 5.03486 2.66797 4.66667ZM2.66797 8C2.66797 7.63181 2.96645 7.33333 3.33464 7.33333H12.668C13.0362 7.33333 13.3346 7.63181 13.3346 8C13.3346 8.36819 13.0362 8.66667 12.668 8.66667H3.33464C2.96645 8.66667 2.66797 8.36819 2.66797 8ZM2.66797 11.3333C2.66797 10.9651 2.96645 10.6667 3.33464 10.6667H12.668C13.0362 10.6667 13.3346 10.9651 13.3346 11.3333C13.3346 11.7015 13.0362 12 12.668 12H3.33464C2.96645 12 2.66797 11.7015 2.66797 11.3333Z" fill="#175CD3"/>
</svg>
