<svg width="16" height="16" viewBox="0 0 16 16" fill="none" xmlns="http://www.w3.org/2000/svg">
<path d="M8.0013 2C6.47674 2 5.25383 3.22454 5.25383 4.71931V5.28072C5.25383 6.77549 6.47674 8.00003 8.0013 8.00003C9.52586 8.00003 10.7488 6.77549 10.7488 5.28072V4.71931C10.7488 3.22454 9.52586 2 8.0013 2Z" fill="#175CD3"/>
<path d="M6.06191 8.98243C4.18749 8.98243 2.66797 10.467 2.66797 12.2982V13.2456C2.66797 14.0304 3.31919 14.6667 4.12251 14.6667H11.8801C12.6834 14.6667 13.3346 14.0304 13.3346 13.2456V12.2982C13.3346 10.467 11.8151 8.98243 9.94069 8.98243H6.06191Z" fill="#175CD3"/>
</svg>
