<svg width="313" height="159" viewBox="0 0 313 159" fill="none" xmlns="http://www.w3.org/2000/svg">
<g clip-path="url(#clip0_4064_6059)">
<path d="M175.688 12.2892H138.245C137.74 12.2895 137.256 12.4903 136.898 12.8475C136.541 13.2047 136.34 13.6891 136.34 14.1943V48.5489C136.34 49.054 136.541 49.5384 136.898 49.8956C137.256 50.2528 137.74 50.4536 138.245 50.4539H175.688C176.194 50.4537 176.678 50.2529 177.035 49.8957C177.393 49.5385 177.593 49.0541 177.594 48.5489V14.1943C177.593 13.6891 177.393 13.2047 177.035 12.8475C176.678 12.4903 176.194 12.2895 175.688 12.2892Z" fill="#C6C6C6"/>
<path d="M173.223 38.5159H140.71C139.658 38.5159 138.805 37.6629 138.805 36.6109V6.25676C138.805 5.2047 139.658 4.35172 140.71 4.35172H173.223C174.275 4.35172 175.128 5.2047 175.128 6.25676V36.6109C175.128 37.6629 174.275 38.5159 173.223 38.5159Z" fill="#F9F9F9"/>
<path d="M139.408 37.2138V6.85991C139.408 5.80785 140.261 4.95486 141.313 4.95486H173.826C174.198 4.95486 174.543 5.06286 174.836 5.2468C174.5 4.70975 173.904 4.35172 173.223 4.35172H140.71C139.658 4.35172 138.805 5.2047 138.805 6.25676V36.6109C138.805 37.2917 139.163 37.8872 139.7 38.2242C139.516 37.9311 139.408 37.5856 139.408 37.214V37.2138Z" fill="url(#paint0_linear_4064_6059)"/>
<path d="M169.223 10.765H144.711V12.162H169.223V10.765ZM169.223 16.0989H144.711V17.4959H169.223V16.0989ZM169.223 21.434H144.711V22.8309H169.223V21.434ZM169.223 26.7679H144.711V28.165H169.223V26.7679Z" fill="white"/>
<path d="M147.632 22.2591L153.792 28.4188H147.632V22.2591Z" fill="url(#paint1_linear_4064_6059)"/>
<path d="M177.594 28.9269V14.7545L175.128 12.2892V28.9267H177.594V28.9269Z" fill="#C6C6C6"/>
<path d="M180.481 30.2088L177.825 49.0099C177.692 49.9498 176.888 50.6484 175.939 50.6484H137.995C137.045 50.6484 136.241 49.9498 136.108 49.0099L132.519 23.6051C132.357 22.4582 133.247 21.4335 134.405 21.4335H146.123C147.073 21.4335 147.877 22.1321 148.01 23.0718L148.48 26.3987C148.613 27.3387 149.417 28.0372 150.366 28.0372H178.595C179.753 28.0372 180.643 29.062 180.481 30.2088H180.481Z" fill="url(#paint2_linear_4064_6059)"/>
<path d="M171.071 42.2624H142.863C142.708 42.2623 142.559 42.2059 142.443 42.1036C142.327 42.0014 142.252 41.8604 142.233 41.707L141.88 38.9128C141.869 38.8234 141.877 38.7327 141.903 38.6466C141.93 38.5605 141.974 38.481 142.034 38.4134C142.093 38.3459 142.167 38.2917 142.249 38.2547C142.331 38.2176 142.42 38.1984 142.51 38.1983H171.424C171.514 38.1984 171.603 38.2176 171.685 38.2547C171.767 38.2917 171.84 38.3459 171.9 38.4134C171.959 38.481 172.004 38.5605 172.03 38.6466C172.057 38.7327 172.065 38.8234 172.054 38.9128L171.701 41.707C171.681 41.8604 171.607 42.0014 171.491 42.1036C171.375 42.2059 171.225 42.2623 171.071 42.2624V42.2624Z" fill="#D5D5D5"/>
</g>
<path d="M79.0367 90.5V80.63H80.1987V85.11H80.2267L84.9587 80.63H86.4427L80.9967 85.726L81.0107 85.138L86.8347 90.5H85.3087L80.2267 85.852H80.1987V90.5H79.0367ZM87.7837 90.5V80.196H88.9177V85.026H88.7357C88.9317 84.4753 89.2584 84.06 89.7157 83.78C90.1824 83.4907 90.7191 83.346 91.3257 83.346C92.1657 83.346 92.7911 83.5747 93.2017 84.032C93.6124 84.48 93.8177 85.1613 93.8177 86.076V90.5H92.6837V86.146C92.6837 85.4927 92.5531 85.0167 92.2917 84.718C92.0397 84.4193 91.6291 84.27 91.0597 84.27C90.4064 84.27 89.8837 84.4707 89.4917 84.872C89.1091 85.2733 88.9177 85.8007 88.9177 86.454V90.5H87.7837ZM98.8709 90.626C98.1989 90.626 97.6109 90.4813 97.1069 90.192C96.6122 89.8933 96.2295 89.4733 95.9589 88.932C95.6882 88.3813 95.5529 87.7327 95.5529 86.986C95.5529 86.23 95.6882 85.5813 95.9589 85.04C96.2295 84.4987 96.6122 84.0833 97.1069 83.794C97.6109 83.4953 98.1989 83.346 98.8709 83.346C99.5522 83.346 100.14 83.4953 100.635 83.794C101.139 84.0833 101.526 84.4987 101.797 85.04C102.077 85.5813 102.217 86.23 102.217 86.986C102.217 87.7327 102.077 88.3813 101.797 88.932C101.526 89.4733 101.139 89.8933 100.635 90.192C100.14 90.4813 99.5522 90.626 98.8709 90.626ZM98.8709 89.702C99.5429 89.702 100.075 89.4733 100.467 89.016C100.859 88.5493 101.055 87.8727 101.055 86.986C101.055 86.09 100.854 85.4133 100.453 84.956C100.061 84.4893 99.5335 84.256 98.8709 84.256C98.2082 84.256 97.6809 84.4893 97.2889 84.956C96.8969 85.4133 96.7009 86.09 96.7009 86.986C96.7009 87.8727 96.8969 88.5493 97.2889 89.016C97.6809 89.4733 98.2082 89.702 98.8709 89.702ZM96.8129 82.786L98.3389 79.958H99.4309L100.957 82.786H100.173L98.8849 80.714L97.5969 82.786H96.8129ZM103.985 90.5V85.096C103.985 84.8347 103.971 84.5687 103.943 84.298C103.924 84.018 103.901 83.7427 103.873 83.472H104.965L105.105 85.012H104.937C105.142 84.4707 105.469 84.06 105.917 83.78C106.374 83.4907 106.902 83.346 107.499 83.346C108.33 83.346 108.955 83.57 109.375 84.018C109.804 84.4567 110.019 85.152 110.019 86.104V90.5H108.885V86.174C108.885 85.5113 108.75 85.0307 108.479 84.732C108.218 84.424 107.807 84.27 107.247 84.27C106.594 84.27 106.076 84.4707 105.693 84.872C105.31 85.2733 105.119 85.81 105.119 86.482V90.5H103.985ZM115.282 93.622C114.675 93.622 114.115 93.5473 113.602 93.398C113.089 93.2487 112.627 93.02 112.216 92.712L112.552 91.858C112.841 92.0633 113.126 92.2267 113.406 92.348C113.686 92.4693 113.975 92.558 114.274 92.614C114.573 92.6793 114.89 92.712 115.226 92.712C115.917 92.712 116.439 92.53 116.794 92.166C117.149 91.802 117.326 91.284 117.326 90.612V88.554H117.466C117.317 89.1047 117.009 89.5433 116.542 89.87C116.075 90.1873 115.529 90.346 114.904 90.346C114.26 90.346 113.7 90.206 113.224 89.926C112.757 89.6367 112.393 89.2307 112.132 88.708C111.88 88.176 111.754 87.5507 111.754 86.832C111.754 86.1227 111.88 85.5067 112.132 84.984C112.393 84.4613 112.757 84.06 113.224 83.78C113.7 83.4907 114.26 83.346 114.904 83.346C115.539 83.346 116.085 83.5047 116.542 83.822C117.009 84.1393 117.317 84.578 117.466 85.138L117.326 84.998L117.452 83.472H118.558C118.521 83.7427 118.493 84.018 118.474 84.298C118.455 84.5687 118.446 84.8347 118.446 85.096V90.458C118.446 91.5033 118.175 92.292 117.634 92.824C117.102 93.356 116.318 93.622 115.282 93.622ZM115.114 89.422C115.795 89.422 116.332 89.198 116.724 88.75C117.116 88.2927 117.312 87.6533 117.312 86.832C117.312 86.0107 117.116 85.376 116.724 84.928C116.332 84.48 115.795 84.256 115.114 84.256C114.442 84.256 113.905 84.48 113.504 84.928C113.103 85.376 112.902 86.0107 112.902 86.832C112.902 87.6533 113.103 88.2927 113.504 88.75C113.905 89.198 114.442 89.422 115.114 89.422ZM127.228 90.626C126.537 90.626 125.935 90.4767 125.422 90.178C124.918 89.8793 124.526 89.4547 124.246 88.904C123.975 88.3533 123.84 87.7 123.84 86.944C123.84 86.1787 123.98 85.53 124.26 84.998C124.54 84.4567 124.932 84.046 125.436 83.766C125.949 83.486 126.547 83.346 127.228 83.346C127.676 83.346 128.11 83.4253 128.53 83.584C128.959 83.7427 129.314 83.9667 129.594 84.256L129.188 85.068C128.908 84.7973 128.6 84.5967 128.264 84.466C127.937 84.3353 127.615 84.27 127.298 84.27C126.57 84.27 126.005 84.4987 125.604 84.956C125.203 85.4133 125.002 86.0807 125.002 86.958C125.002 87.826 125.203 88.498 125.604 88.974C126.005 89.45 126.57 89.688 127.298 89.688C127.606 89.688 127.923 89.6273 128.25 89.506C128.586 89.3847 128.899 89.184 129.188 88.904L129.594 89.702C129.305 90.0007 128.945 90.2293 128.516 90.388C128.087 90.5467 127.657 90.626 127.228 90.626ZM133.953 90.626C133.281 90.626 132.693 90.4813 132.189 90.192C131.694 89.8933 131.312 89.4733 131.041 88.932C130.77 88.3813 130.635 87.7327 130.635 86.986C130.635 86.23 130.77 85.5813 131.041 85.04C131.312 84.4987 131.694 84.0833 132.189 83.794C132.693 83.4953 133.281 83.346 133.953 83.346C134.634 83.346 135.222 83.4953 135.717 83.794C136.221 84.0833 136.608 84.4987 136.879 85.04C137.159 85.5813 137.299 86.23 137.299 86.986C137.299 87.7327 137.159 88.3813 136.879 88.932C136.608 89.4733 136.221 89.8933 135.717 90.192C135.222 90.4813 134.634 90.626 133.953 90.626ZM133.953 89.702C134.625 89.702 135.157 89.4733 135.549 89.016C135.941 88.5493 136.137 87.8727 136.137 86.986C136.137 86.09 135.936 85.4133 135.535 84.956C135.143 84.4893 134.616 84.256 133.953 84.256C133.29 84.256 132.763 84.4893 132.371 84.956C131.979 85.4133 131.783 86.09 131.783 86.986C131.783 87.8727 131.979 88.5493 132.371 89.016C132.763 89.4733 133.29 89.702 133.953 89.702ZM133.561 82.786L135.003 79.958H136.221L134.373 82.786H133.561ZM145.377 90.626C144.761 90.626 144.22 90.4813 143.753 90.192C143.287 89.8933 142.923 89.4733 142.661 88.932C142.409 88.3907 142.283 87.742 142.283 86.986C142.283 86.2207 142.409 85.5673 142.661 85.026C142.923 84.4847 143.287 84.0693 143.753 83.78C144.22 83.4907 144.761 83.346 145.377 83.346C146.012 83.346 146.558 83.5047 147.015 83.822C147.482 84.1393 147.795 84.5687 147.953 85.11H147.785V80.196H148.919V90.5H147.799V88.82H147.953C147.804 89.38 147.496 89.8233 147.029 90.15C146.563 90.4673 146.012 90.626 145.377 90.626ZM145.615 89.702C146.278 89.702 146.81 89.4733 147.211 89.016C147.613 88.5493 147.813 87.8727 147.813 86.986C147.813 86.09 147.613 85.4133 147.211 84.956C146.81 84.4893 146.278 84.256 145.615 84.256C144.953 84.256 144.421 84.4893 144.019 84.956C143.627 85.4133 143.431 86.09 143.431 86.986C143.431 87.8727 143.627 88.5493 144.019 89.016C144.421 89.4733 144.953 89.702 145.615 89.702ZM153.59 90.626C152.759 90.626 152.129 90.3973 151.7 89.94C151.28 89.4827 151.07 88.7827 151.07 87.84V83.472H152.204V87.812C152.204 88.456 152.335 88.932 152.596 89.24C152.857 89.5387 153.263 89.688 153.814 89.688C154.43 89.688 154.925 89.4873 155.298 89.086C155.671 88.6847 155.858 88.148 155.858 87.476V83.472H156.992V90.5H155.886V88.918H156.068C155.872 89.4593 155.555 89.8793 155.116 90.178C154.687 90.4767 154.178 90.626 153.59 90.626ZM156.642 84.172L156.054 83.78V83.472C156.446 83.4627 156.754 83.402 156.978 83.29C157.202 83.178 157.361 83.0053 157.454 82.772C157.547 82.5387 157.594 82.24 157.594 81.876V81.652H158.602V82.044C158.602 82.464 158.523 82.828 158.364 83.136C158.215 83.444 157.991 83.6867 157.692 83.864C157.403 84.0413 157.053 84.144 156.642 84.172ZM152.19 82.24L151.546 82.198C151.602 81.6007 151.756 81.1433 152.008 80.826C152.26 80.4993 152.587 80.336 152.988 80.336C153.175 80.336 153.347 80.378 153.506 80.462C153.674 80.546 153.879 80.7 154.122 80.924C154.327 81.1013 154.486 81.2273 154.598 81.302C154.719 81.3673 154.841 81.4 154.962 81.4C155.429 81.4 155.713 81.0313 155.816 80.294L156.46 80.336C156.413 80.9333 156.259 81.3953 155.998 81.722C155.746 82.0393 155.424 82.198 155.032 82.198C154.827 82.198 154.635 82.1513 154.458 82.058C154.29 81.9553 154.099 81.806 153.884 81.61C153.688 81.4327 153.529 81.3113 153.408 81.246C153.287 81.1713 153.17 81.134 153.058 81.134C152.591 81.134 152.302 81.5027 152.19 82.24ZM162.842 90.5V80.196H163.976V90.5H162.842ZM166.178 90.5V83.472H167.312V90.5H166.178ZM166.038 81.876V80.602H167.438V81.876H166.038ZM172.636 90.626C171.535 90.626 170.667 90.3087 170.032 89.674C169.398 89.03 169.08 88.1387 169.08 87C169.08 86.2627 169.22 85.6233 169.5 85.082C169.78 84.5313 170.172 84.1067 170.676 83.808C171.18 83.5 171.759 83.346 172.412 83.346C173.056 83.346 173.598 83.4813 174.036 83.752C174.475 84.0227 174.811 84.41 175.044 84.914C175.278 85.4087 175.394 85.9967 175.394 86.678V87.098H169.948V86.384H174.652L174.414 86.566C174.414 85.8193 174.246 85.236 173.91 84.816C173.574 84.396 173.075 84.186 172.412 84.186C171.712 84.186 171.166 84.4333 170.774 84.928C170.382 85.4133 170.186 86.0713 170.186 86.902V87.028C170.186 87.9053 170.401 88.5727 170.83 89.03C171.269 89.478 171.88 89.702 172.664 89.702C173.084 89.702 173.476 89.6413 173.84 89.52C174.214 89.3893 174.568 89.1793 174.904 88.89L175.296 89.688C174.988 89.9867 174.596 90.22 174.12 90.388C173.654 90.5467 173.159 90.626 172.636 90.626ZM171.81 93.118V91.886H173.098V93.118H171.81ZM170.34 82.786L171.866 79.958H172.958L174.484 82.786H173.7L172.412 80.714L171.124 82.786H170.34ZM179.607 90.626C178.777 90.626 178.147 90.3973 177.717 89.94C177.297 89.4827 177.087 88.7827 177.087 87.84V83.472H178.221V87.812C178.221 88.456 178.352 88.932 178.613 89.24C178.875 89.5387 179.281 89.688 179.831 89.688C180.447 89.688 180.942 89.4873 181.315 89.086C181.689 88.6847 181.875 88.148 181.875 87.476V83.472H183.009V90.5H181.903V88.918H182.085C181.889 89.4593 181.572 89.8793 181.133 90.178C180.704 90.4767 180.195 90.626 179.607 90.626ZM188.86 90.5V80.196H189.994V85.026H189.812C190.008 84.4753 190.335 84.06 190.792 83.78C191.259 83.4907 191.795 83.346 192.402 83.346C193.242 83.346 193.867 83.5747 194.278 84.032C194.689 84.48 194.894 85.1613 194.894 86.076V90.5H193.76V86.146C193.76 85.4927 193.629 85.0167 193.368 84.718C193.116 84.4193 192.705 84.27 192.136 84.27C191.483 84.27 190.96 84.4707 190.568 84.872C190.185 85.2733 189.994 85.8007 189.994 86.454V90.5H188.86ZM197.063 90.5V83.472H198.197V90.5H197.063ZM196.923 81.876V80.602H198.323V81.876H196.923ZM203.521 90.626C202.42 90.626 201.552 90.3087 200.917 89.674C200.282 89.03 199.965 88.1387 199.965 87C199.965 86.2627 200.105 85.6233 200.385 85.082C200.665 84.5313 201.057 84.1067 201.561 83.808C202.065 83.5 202.644 83.346 203.297 83.346C203.941 83.346 204.482 83.4813 204.921 83.752C205.36 84.0227 205.696 84.41 205.929 84.914C206.162 85.4087 206.279 85.9967 206.279 86.678V87.098H200.833V86.384H205.537L205.299 86.566C205.299 85.8193 205.131 85.236 204.795 84.816C204.459 84.396 203.96 84.186 203.297 84.186C202.597 84.186 202.051 84.4333 201.659 84.928C201.267 85.4133 201.071 86.0713 201.071 86.902V87.028C201.071 87.9053 201.286 88.5727 201.715 89.03C202.154 89.478 202.765 89.702 203.549 89.702C203.969 89.702 204.361 89.6413 204.725 89.52C205.098 89.3893 205.453 89.1793 205.789 88.89L206.181 89.688C205.873 89.9867 205.481 90.22 205.005 90.388C204.538 90.5467 204.044 90.626 203.521 90.626ZM201.225 82.814L202.751 80.546H203.843L205.369 82.814H204.599L203.297 81.274L201.995 82.814H201.225ZM204.711 81.358C204.711 81.162 204.753 81.0033 204.837 80.882C204.921 80.7607 205.019 80.6627 205.131 80.588C205.243 80.504 205.336 80.4247 205.411 80.35C205.495 80.2753 205.537 80.182 205.537 80.07C205.537 79.9673 205.486 79.8973 205.383 79.86C205.28 79.8227 205.126 79.804 204.921 79.804C204.8 79.804 204.669 79.818 204.529 79.846C204.389 79.8647 204.24 79.9067 204.081 79.972L203.913 79.44C204.072 79.3653 204.249 79.3093 204.445 79.272C204.65 79.2253 204.874 79.202 205.117 79.202C205.518 79.202 205.826 79.2673 206.041 79.398C206.265 79.5287 206.377 79.706 206.377 79.93C206.377 80.1167 206.33 80.266 206.237 80.378C206.144 80.4807 206.032 80.5787 205.901 80.672C205.77 80.756 205.658 80.8493 205.565 80.952C205.472 81.0547 205.425 81.19 205.425 81.358H204.711ZM208.014 90.5V85.096C208.014 84.8347 208 84.5687 207.972 84.298C207.954 84.018 207.93 83.7427 207.902 83.472H208.994L209.134 85.012H208.966C209.172 84.4707 209.498 84.06 209.946 83.78C210.404 83.4907 210.931 83.346 211.528 83.346C212.359 83.346 212.984 83.57 213.404 84.018C213.834 84.4567 214.048 85.152 214.048 86.104V90.5H212.914V86.174C212.914 85.5113 212.779 85.0307 212.508 84.732C212.247 84.424 211.836 84.27 211.276 84.27C210.623 84.27 210.105 84.4707 209.722 84.872C209.34 85.2733 209.148 85.81 209.148 86.482V90.5H208.014ZM222.36 90.626C221.669 90.626 221.142 90.43 220.778 90.038C220.414 89.6367 220.232 89.0347 220.232 88.232V84.354H218.86V83.472H220.232V81.554L221.366 81.232V83.472H223.382V84.354H221.366V88.106C221.366 88.666 221.459 89.0673 221.646 89.31C221.842 89.5433 222.131 89.66 222.514 89.66C222.691 89.66 222.85 89.646 222.99 89.618C223.13 89.5807 223.256 89.5387 223.368 89.492V90.444C223.237 90.5 223.078 90.542 222.892 90.57C222.714 90.6073 222.537 90.626 222.36 90.626ZM224.762 90.5V80.196H225.896V85.026H225.714C225.91 84.4753 226.237 84.06 226.694 83.78C227.161 83.4907 227.698 83.346 228.304 83.346C229.144 83.346 229.77 83.5747 230.18 84.032C230.591 84.48 230.796 85.1613 230.796 86.076V90.5H229.662V86.146C229.662 85.4927 229.532 85.0167 229.27 84.718C229.018 84.4193 228.608 84.27 228.038 84.27C227.385 84.27 226.862 84.4707 226.47 84.872C226.088 85.2733 225.896 85.8007 225.896 86.454V90.5H224.762ZM232.965 90.5V83.472H234.099V90.5H232.965ZM232.825 81.876V80.602H234.225V81.876H232.825ZM232.951 93.118V91.886H234.239V93.118H232.951Z" fill="black" fill-opacity="0.7"/>
<defs>
<linearGradient id="paint0_linear_4064_6059" x1="158.084" y1="22.5488" x2="133.991" y2="-1.54383" gradientUnits="userSpaceOnUse">
<stop stop-color="white"/>
</linearGradient>
<linearGradient id="paint1_linear_4064_6059" x1="151.702" y1="29.4072" x2="144.256" y2="21.962" gradientUnits="userSpaceOnUse">
<stop stop-color="#C2CECE" stop-opacity="0"/>
<stop offset="0.179" stop-color="#AFBCBC" stop-opacity="0.179"/>
<stop offset="1" stop-color="#5B6A6A"/>
</linearGradient>
<linearGradient id="paint2_linear_4064_6059" x1="156.5" y1="21.4335" x2="156.5" y2="50.6484" gradientUnits="userSpaceOnUse">
<stop stop-color="#EEF0F4"/>
<stop offset="0.927" stop-color="#E4E4E4"/>
</linearGradient>
<clipPath id="clip0_4064_6059">
<rect width="48" height="48" fill="white" transform="translate(132.5 3.5)"/>
</clipPath>
</defs>
</svg>
