<svg width="60" height="60" viewBox="0 0 60 60" fill="none" xmlns="http://www.w3.org/2000/svg">
<g id="System/Icon popup">
<circle id="Ellipse 8" cx="30" cy="30" r="28.5" fill="#EB854C" stroke="#F9DAC9" stroke-width="3"/>
<g id="Color">
<path d="M29.9908 21.75C30.8953 21.75 31.632 22.4665 31.632 23.3544V33.3C31.632 34.1879 30.8953 34.9044 29.9908 34.9044C29.0863 34.9044 28.3496 34.1879 28.3496 33.3V23.3544C28.3496 22.4665 29.0863 21.75 29.9908 21.75Z" fill="white"/>
<path d="M28.3496 38.2956C28.3496 37.4077 29.0863 36.6912 29.9908 36.6912H30.0084C30.9129 36.6912 31.6496 37.4077 31.6496 38.2956C31.6496 39.1835 30.9129 39.9 30.0084 39.9H29.9908C29.0863 39.9 28.3496 39.1835 28.3496 38.2956Z" fill="white"/>
</g>
</g>
</svg>
