<svg width="60" height="60" viewBox="0 0 60 60" fill="none" xmlns="http://www.w3.org/2000/svg">
<g id="System/Icon popup">
<path id="Ellipse 8" d="M30.532 5.83029L57.3201 49.5H2.733L30.532 5.83029Z" fill="#DE350C" stroke="#F9C9CF" stroke-width="3"/>
<g id="Color">
<path d="M30.6412 24C31.5457 24 32.2824 24.7165 32.2824 25.6044V35.55C32.2824 36.4379 31.5457 37.1544 30.6412 37.1544C29.7367 37.1544 29 36.4379 29 35.55V25.6044C29 24.7165 29.7367 24 30.6412 24Z" fill="white"/>
<path d="M29 40.5456C29 39.6577 29.7367 38.9412 30.6412 38.9412H30.6588C31.5633 38.9412 32.3 39.6577 32.3 40.5456C32.3 41.4335 31.5633 42.15 30.6588 42.15H30.6412C29.7367 42.15 29 41.4335 29 40.5456Z" fill="white"/>
</g>
</g>
</svg>
