<svg width="603" height="64" viewBox="0 0 603 64" fill="none" xmlns="http://www.w3.org/2000/svg">
<g clip-path="url(#clip0_773_321)">
<g opacity="0.04">
<mask id="path-1-inside-1_773_321" fill="white">
<path d="M107.629 240.023L509.999 -4.82824L372.37 -230.997L-30.0001 13.8545L107.629 240.023Z"/>
</mask>
<path d="M107.629 240.023L509.999 -4.82824L372.37 -230.997L-30.0001 13.8545L107.629 240.023Z" fill="#175CD3"/>
<path d="M508.291 -3.78857L370.662 -229.957L374.079 -232.037L511.708 -5.86792L508.291 -3.78857Z" fill="white" mask="url(#path-1-inside-1_773_321)"/>
</g>
<g opacity="0.04">
<mask id="path-3-inside-2_773_321" fill="white">
<path d="M67.3633 197.904L418.297 -15.647L297.594 -214.001L-53.3396 -0.449483L67.3633 197.904Z"/>
</mask>
<path d="M67.3633 197.904L418.297 -15.647L297.594 -214.001L-53.3396 -0.449483L67.3633 197.904Z" fill="#175CD3"/>
<path d="M416.588 -14.6073L295.885 -212.961L299.302 -215.04L420.005 -16.6867L416.588 -14.6073Z" fill="white" mask="url(#path-3-inside-2_773_321)"/>
</g>
<g opacity="0.04">
<mask id="path-5-inside-3_773_321" fill="white">
<path d="M-40.1367 391.457L602.652 0.305202L382.789 -361.001L-260 30.1511L-40.1367 391.457Z"/>
</mask>
<path d="M-40.1367 391.457L602.652 0.305202L382.789 -361.001L-260 30.1511L-40.1367 391.457Z" fill="#175CD3"/>
<path d="M600.943 1.34488L381.08 -359.961L384.497 -362.04L604.36 -0.734477L600.943 1.34488Z" fill="white" mask="url(#path-5-inside-3_773_321)"/>
</g>
</g>
<defs>
<clipPath id="clip0_773_321">
<rect width="603" height="64" fill="white"/>
</clipPath>
</defs>
</svg>
