<svg width="40" height="40" viewBox="0 0 40 40" fill="none" xmlns="http://www.w3.org/2000/svg">
<rect width="40" height="40" rx="20" fill="#F9F9F9"/>
<path fill-rule="evenodd" clip-rule="evenodd" d="M19.3069 10.5352C20.0032 10.4717 20.926 10.4724 21.845 10.7241C24.797 11.533 26.9661 14.236 26.9661 17.4454V22.2237C26.9661 22.2538 26.975 22.2833 26.9917 22.3084L28.8548 25.1039C29.0317 25.3692 29.0481 25.7104 28.8977 25.9915C28.7473 26.2727 28.4544 26.4482 28.1356 26.4482H23.5233C23.4474 26.4482 23.383 26.504 23.3723 26.5792C23.1361 28.2305 21.7161 29.5 20 29.5C18.2839 29.5 16.8639 28.2305 16.6277 26.5792C16.617 26.504 16.5526 26.4482 16.4767 26.4482H11.8644C11.5456 26.4482 11.2527 26.2727 11.1023 25.9915C10.9519 25.7104 10.9683 25.3692 11.1452 25.1039L13.0083 22.3084C13.025 22.2833 13.0339 22.2538 13.0339 22.2237V17.4454C13.0339 14.236 15.2038 11.5328 18.1558 10.7239L18.1593 10.723L18.1742 10.7191C18.1876 10.7156 18.2079 10.7105 18.2346 10.7042C18.2881 10.6915 18.3671 10.6738 18.468 10.6541C18.67 10.6145 18.9594 10.567 19.3069 10.5352ZM18.5614 26.4482C18.5119 26.4482 18.4654 26.4722 18.4368 26.5127C18.4082 26.5531 18.4011 26.6049 18.4176 26.6516C18.6478 27.3034 19.2692 27.7706 20 27.7706C20.7308 27.7706 21.3522 27.3034 21.5824 26.6516C21.5989 26.6049 21.5918 26.5531 21.5632 26.5127C21.5346 26.4722 21.4881 26.4482 21.4386 26.4482H18.5614ZM13.6377 24.4816C13.6065 24.5284 13.6036 24.5886 13.6301 24.6383C13.6566 24.6879 13.7083 24.7188 13.7646 24.7188H26.2354C26.2917 24.7188 26.3434 24.6879 26.3699 24.6383C26.3964 24.5886 26.3935 24.5284 26.3623 24.4816L25.3825 23.0114C25.2878 22.8693 25.2373 22.7024 25.2373 22.5317V17.4454C25.2373 14.552 22.8925 12.2065 20 12.2065C17.1075 12.2065 14.7627 14.552 14.7627 17.4454V22.5317C14.7627 22.7024 14.7122 22.8693 14.6175 23.0114L13.6377 24.4816Z" fill="#525B73"/>
</svg>
