<svg width="258" height="189" viewBox="0 0 258 189" fill="none" xmlns="http://www.w3.org/2000/svg">
<g opacity="0.1">
<path d="M242.828 144.195V189.813H257.995V147.013L242.828 144.195Z" fill="url(#paint0_linear_8837_177542)"/>
<path d="M256.714 181.73H244.531V183.912H256.714V181.73Z" fill="#E2E5E7"/>
<path d="M244.531 177.74L256.714 177.976V180.157L244.531 179.922V177.74Z" fill="#E2E5E7"/>
<path d="M244.531 173.752L256.714 174.222V176.404L244.531 175.933V173.752Z" fill="#E2E5E7"/>
<path d="M244.531 169.764L256.714 170.47V172.651L244.531 171.946V169.764Z" fill="#E2E5E7"/>
<path d="M244.531 165.773L256.714 166.715V168.897L244.531 167.955V165.773Z" fill="#E2E5E7"/>
<path d="M244.531 161.785L256.714 162.962V165.143L244.531 163.967V161.785Z" fill="#E2E5E7"/>
<path d="M244.531 157.797L256.714 159.209V161.391L244.531 159.979V157.797Z" fill="#E2E5E7"/>
<path d="M244.531 153.807L256.714 155.454V157.636L244.531 155.989V153.807Z" fill="#E2E5E7"/>
<path d="M244.531 149.818L256.714 151.701V153.883L244.531 152V149.818Z" fill="#E2E5E7"/>
<path d="M242.828 144.195V189.813H227.66V147.013L242.828 144.195Z" fill="url(#paint1_linear_8837_177542)"/>
<path d="M241.12 181.73H228.938V183.912H241.12V181.73Z" fill="#727578"/>
<path d="M241.12 177.74L228.938 177.976V180.157L241.12 179.922V177.74Z" fill="#727578"/>
<path d="M241.12 173.752L228.938 174.222V176.404L241.12 175.933V173.752Z" fill="#727578"/>
<path d="M241.12 169.764L228.938 170.47V172.651L241.12 171.946V169.764Z" fill="#727578"/>
<path d="M241.12 165.773L228.938 166.715V168.897L241.12 167.955V165.773Z" fill="#727578"/>
<path d="M241.12 161.785L228.938 162.962V165.143L241.12 163.967V161.785Z" fill="#727578"/>
<path d="M241.12 157.797L228.938 159.209V161.391L241.12 159.979V157.797Z" fill="#727578"/>
<path d="M241.12 153.807L228.938 155.454V157.636L241.12 155.989V153.807Z" fill="#727578"/>
<path d="M241.12 149.818L228.938 151.701V153.883L241.12 152V149.818Z" fill="#727578"/>
<path d="M242.035 190.662H228.617V68.0156L242.035 76.9952V190.662Z" fill="url(#paint2_linear_8837_177542)"/>
<path d="M240.706 184.086H229.957V186.319H240.706V184.086Z" fill="#E2E5E7"/>
<path d="M229.957 180.965L240.706 181.284V179.051L229.957 178.732V180.965Z" fill="#E2E5E7"/>
<path d="M229.957 175.61L240.706 176.248V174.015L229.957 173.377V175.61Z" fill="#E2E5E7"/>
<path d="M229.957 170.254L240.706 171.211V168.978L229.957 168.021V170.254Z" fill="#E2E5E7"/>
<path d="M229.957 164.901L240.706 166.177V163.944L229.957 162.668V164.901Z" fill="#E2E5E7"/>
<path d="M229.957 159.545L240.706 161.14V158.908L229.957 157.312V159.545Z" fill="#E2E5E7"/>
<path d="M229.957 154.191L240.706 156.106V153.873L229.957 151.959V154.191Z" fill="#E2E5E7"/>
<path d="M229.957 148.836L240.706 151.069V148.837L229.957 146.604V148.836Z" fill="#E2E5E7"/>
<path d="M229.957 143.482L240.706 146.034V143.802L229.957 141.25V143.482Z" fill="#E2E5E7"/>
<path d="M229.957 138.127L240.706 140.998V138.766L229.957 135.895V138.127Z" fill="#E2E5E7"/>
<path d="M229.957 132.772L240.706 135.962V133.729L229.957 130.539V132.772Z" fill="#E2E5E7"/>
<path d="M229.957 127.419L240.706 130.928V128.695L229.957 125.186V127.419Z" fill="#E2E5E7"/>
<path d="M229.957 122.063L240.706 125.892V123.659L229.957 119.83V122.063Z" fill="#E2E5E7"/>
<path d="M229.957 116.709L240.706 120.856V118.624L229.957 114.477V116.709Z" fill="#E2E5E7"/>
<path d="M229.957 111.354L240.706 115.82V113.588L229.957 109.121V111.354Z" fill="#E2E5E7"/>
<path d="M229.957 106L240.706 110.785V108.553L229.957 103.768V106Z" fill="#E2E5E7"/>
<path d="M229.957 100.645L240.706 105.749V103.517L229.957 98.4121V100.645Z" fill="#E2E5E7"/>
<path d="M229.957 95.2912L240.706 100.715V98.482L229.957 93.0586V95.2912Z" fill="#E2E5E7"/>
<path d="M229.957 89.9377L240.706 95.6801V93.4475L229.957 87.7051V89.9377Z" fill="#E2E5E7"/>
<path d="M229.957 84.5822L240.706 90.6437V88.4111L229.957 82.3496V84.5822Z" fill="#E2E5E7"/>
<path d="M229.957 79.2267L240.706 85.6073V83.3747L229.957 76.9941V79.2267Z" fill="#E2E5E7"/>
<path d="M215.199 190.662H228.618V68.0156L215.199 76.9952V190.662Z" fill="url(#paint3_linear_8837_177542)"/>
<path d="M227.28 184.086H216.531V186.319H227.28V184.086Z" fill="#727578"/>
<path d="M227.28 180.965L216.531 181.284V179.051L227.28 178.732V180.965Z" fill="#727578"/>
<path d="M227.28 175.61L216.531 176.248V174.015L227.28 173.377V175.61Z" fill="#727578"/>
<path d="M227.28 170.254L216.531 171.211V168.978L227.28 168.021V170.254Z" fill="#727578"/>
<path d="M227.28 164.901L216.531 166.177V163.944L227.28 162.668V164.901Z" fill="#727578"/>
<path d="M227.28 159.545L216.531 161.14V158.908L227.28 157.312V159.545Z" fill="#727578"/>
<path d="M227.28 154.191L216.531 156.106V153.873L227.28 151.959V154.191Z" fill="#727578"/>
<path d="M227.28 148.836L216.531 151.069V148.837L227.28 146.604V148.836Z" fill="#727578"/>
<path d="M227.28 143.482L216.531 146.034V143.802L227.28 141.25V143.482Z" fill="#727578"/>
<path d="M227.28 138.127L216.531 140.998V138.766L227.28 135.895V138.127Z" fill="#727578"/>
<path d="M227.28 132.772L216.531 135.962V133.729L227.28 130.539V132.772Z" fill="#727578"/>
<path d="M227.28 127.419L216.531 130.928V128.695L227.28 125.186V127.419Z" fill="#727578"/>
<path d="M227.28 122.063L216.531 125.892V123.659L227.28 119.83V122.063Z" fill="#727578"/>
<path d="M227.28 116.709L216.531 120.856V118.624L227.28 114.477V116.709Z" fill="#727578"/>
<path d="M227.28 111.354L216.531 115.82V113.588L227.28 109.121V111.354Z" fill="#727578"/>
<path d="M227.28 106L216.531 110.785V108.553L227.28 103.768V106Z" fill="#727578"/>
<path d="M227.28 100.645L216.531 105.749V103.517L227.28 98.4121V100.645Z" fill="#727578"/>
<path d="M227.28 95.2912L216.531 100.715V98.482L227.28 93.0586V95.2912Z" fill="#727578"/>
<path d="M227.28 89.9377L216.531 95.6801V93.4475L227.28 87.7051V89.9377Z" fill="#727578"/>
<path d="M227.28 84.5822L216.531 90.6437V88.4111L227.28 82.3496V84.5822Z" fill="#727578"/>
<path d="M227.28 79.2267L216.531 85.6073V83.3747L227.28 76.9941V79.2267Z" fill="#727578"/>
<path d="M14.9531 190.971H29.9061V140.849L14.9531 138.033V190.971Z" fill="url(#paint4_linear_8837_177542)"/>
<path d="M14.9529 190.971H0V140.849L14.9529 138.033V190.971Z" fill="url(#paint5_linear_8837_177542)"/>
<path d="M28.1075 183.252H25.6094V187.586H28.1075V183.252Z" fill="#E2E5E7"/>
<path d="M25.6094 175.412L28.1079 175.492V179.826L25.6094 179.745V175.412Z" fill="#E2E5E7"/>
<path d="M25.6094 167.572L28.1079 167.732V172.065L25.6094 171.906V167.572Z" fill="#E2E5E7"/>
<path d="M25.6094 159.734L28.1079 159.974V164.307L25.6094 164.067V159.734Z" fill="#E2E5E7"/>
<path d="M25.6094 151.895L28.1079 152.214V156.547L25.6094 156.227V151.895Z" fill="#E2E5E7"/>
<path d="M25.6094 144.057L28.1079 144.455V148.789L25.6094 148.39V144.057Z" fill="#E2E5E7"/>
<path d="M23.6782 183.25H21.1797V187.584H23.6782V183.25Z" fill="#E2E5E7"/>
<path d="M21.1797 175.281L23.6785 175.361V179.694L21.1797 179.615V175.281Z" fill="#E2E5E7"/>
<path d="M21.1797 167.311L23.6785 167.47V171.804L21.1797 171.644V167.311Z" fill="#E2E5E7"/>
<path d="M21.1797 159.34L23.6785 159.58V163.913L21.1797 163.674V159.34Z" fill="#E2E5E7"/>
<path d="M21.1797 151.369L23.6785 151.688V156.021L21.1797 155.702V151.369Z" fill="#E2E5E7"/>
<path d="M21.1797 143.398L23.6785 143.798V148.131L21.1797 147.732V143.398Z" fill="#E2E5E7"/>
<path d="M19.2524 183.25H16.7539V187.584H19.2524V183.25Z" fill="#E2E5E7"/>
<path d="M16.7539 175.15L19.2527 175.23V179.564L16.7539 179.484V175.15Z" fill="#E2E5E7"/>
<path d="M16.7539 167.053L19.2527 167.213V171.546L16.7539 171.386V167.053Z" fill="#E2E5E7"/>
<path d="M16.7539 158.951L19.2527 159.191V163.524L16.7539 163.285V158.951Z" fill="#E2E5E7"/>
<path d="M16.7539 150.852L19.2527 151.171V155.504L16.7539 155.185V150.852Z" fill="#E2E5E7"/>
<path d="M16.7539 142.752L19.2527 143.151V147.484L16.7539 147.086V142.752Z" fill="#E2E5E7"/>
<path d="M4.29928 183.252H1.80078V187.586H4.29928V183.252Z" fill="#727578"/>
<path d="M4.29961 175.412L1.80078 175.492V179.826L4.29961 179.745V175.412Z" fill="#727578"/>
<path d="M4.29961 167.572L1.80078 167.732V172.065L4.29961 171.906V167.572Z" fill="#727578"/>
<path d="M4.29961 159.734L1.80078 159.974V164.307L4.29961 164.067V159.734Z" fill="#727578"/>
<path d="M4.29961 151.895L1.80078 152.214V156.547L4.29961 156.227V151.895Z" fill="#727578"/>
<path d="M4.29961 144.057L1.80078 144.455V148.789L4.29961 148.39V144.057Z" fill="#727578"/>
<path d="M8.72897 183.25H6.23047V187.584H8.72897V183.25Z" fill="#727578"/>
<path d="M8.72963 175.281L6.23047 175.361V179.694L8.72963 179.615V175.281Z" fill="#727578"/>
<path d="M8.7293 167.311L6.23047 167.47V171.804L8.7293 171.644V167.311Z" fill="#727578"/>
<path d="M8.7293 159.34L6.23047 159.58V163.913L8.7293 163.674V159.34Z" fill="#727578"/>
<path d="M8.72963 151.369L6.23047 151.688V156.021L8.72963 155.702V151.369Z" fill="#727578"/>
<path d="M8.7293 143.398L6.23047 143.798V148.131L8.7293 147.732V143.398Z" fill="#727578"/>
<path d="M13.1505 183.25H10.6523V187.584H13.1505V183.25Z" fill="#727578"/>
<path d="M13.1508 175.15L10.6523 175.23V179.564L13.1508 179.484V175.15Z" fill="#727578"/>
<path d="M13.1508 167.053L10.6523 167.213V171.546L13.1508 171.386V167.053Z" fill="#727578"/>
<path d="M13.1508 158.951L10.6523 159.191V163.524L13.1508 163.285V158.951Z" fill="#727578"/>
<path d="M13.1508 150.852L10.6523 151.171V155.504L13.1508 155.185V150.852Z" fill="#727578"/>
<path d="M13.1508 142.752L10.6523 143.151V147.484L13.1508 147.086V142.752Z" fill="#727578"/>
<path d="M52.5583 192.368H35.5586V36.9863L52.5583 48.3636V192.368Z" fill="url(#paint6_linear_8837_177542)"/>
<path d="M50.8719 184.039H37.2539V186.868H50.8719V184.039Z" fill="#E2E5E7"/>
<path d="M37.2539 180.083L50.8719 180.487V177.658L37.2539 177.254V180.083Z" fill="#E2E5E7"/>
<path d="M37.2539 173.301L50.8719 174.11V171.281L37.2539 170.473V173.301Z" fill="#E2E5E7"/>
<path d="M37.2539 166.516L50.8719 167.728V164.9L37.2539 163.688V166.516Z" fill="#E2E5E7"/>
<path d="M37.2539 159.733L50.8716 161.35V158.521L37.2539 156.904V159.733Z" fill="#E2E5E7"/>
<path d="M37.2539 152.947L50.8719 154.969V152.14L37.2539 150.119V152.947Z" fill="#E2E5E7"/>
<path d="M37.2539 146.165L50.8719 148.59V145.761L37.2539 143.336V146.165Z" fill="#E2E5E7"/>
<path d="M37.2539 139.38L50.8716 142.209V139.38L37.2539 136.551V139.38Z" fill="#E2E5E7"/>
<path d="M37.2539 132.596L50.8719 135.829V133.001L37.2539 129.768V132.596Z" fill="#E2E5E7"/>
<path d="M37.2539 125.813L50.8719 129.451V126.622L37.2539 122.984V125.813Z" fill="#E2E5E7"/>
<path d="M37.2539 119.029L50.8719 123.072V120.243L37.2539 116.201V119.029Z" fill="#E2E5E7"/>
<path d="M37.2539 112.245L50.8719 116.691V113.862L37.2539 109.416V112.245Z" fill="#E2E5E7"/>
<path d="M37.2539 105.461L50.8719 110.311V107.483L37.2539 102.633V105.461Z" fill="#E2E5E7"/>
<path d="M37.2539 98.6784L50.8719 103.933V101.105L37.2539 95.8496V98.6784Z" fill="#E2E5E7"/>
<path d="M37.2539 91.8951L50.8716 97.5536V94.7253L37.2539 89.0664V91.8951Z" fill="#E2E5E7"/>
<path d="M37.2539 85.1119L50.8719 91.1744V88.3462L37.2539 82.2832V85.1119Z" fill="#E2E5E7"/>
<path d="M37.2539 78.3268L50.8719 84.7933V81.9646L37.2539 75.498V78.3268Z" fill="#E2E5E7"/>
<path d="M37.2539 71.5436L50.8719 78.4146V75.5859L37.2539 68.7148V71.5436Z" fill="#E2E5E7"/>
<path d="M37.2539 64.7584L50.8716 72.0335V69.2053L37.2539 61.9297V64.7584Z" fill="#E2E5E7"/>
<path d="M37.2539 57.9747L50.8719 65.6544V62.8261L37.2539 55.1465V57.9747Z" fill="#E2E5E7"/>
<path d="M37.2539 51.1915L50.8719 59.2752V56.4469L37.2539 48.3633V51.1915Z" fill="#E2E5E7"/>
<path d="M18.5586 192.368H35.5583V36.9863L18.5586 48.3636V192.368Z" fill="url(#paint7_linear_8837_177542)"/>
<path d="M33.8641 184.039H20.2461V186.868H33.8641V184.039Z" fill="#727578"/>
<path d="M33.8641 180.083L20.2461 180.487V177.658L33.8641 177.254V180.083Z" fill="#727578"/>
<path d="M33.8645 173.299L20.2461 174.108V171.279L33.8645 170.471V173.299Z" fill="#727578"/>
<path d="M33.8645 166.516L20.2461 167.728V164.9L33.8645 163.688V166.516Z" fill="#727578"/>
<path d="M33.8648 159.733L20.2461 161.35V158.521L33.8648 156.904V159.733Z" fill="#727578"/>
<path d="M33.8645 152.949L20.2461 154.971V152.142L33.8645 150.121V152.949Z" fill="#727578"/>
<path d="M33.8645 146.165L20.2461 148.59V145.761L33.8645 143.336V146.165Z" fill="#727578"/>
<path d="M33.8645 139.382L20.2461 142.211V139.382L33.8645 136.553V139.382Z" fill="#727578"/>
<path d="M33.8645 132.596L20.2461 135.829V133.001L33.8645 129.768V132.596Z" fill="#727578"/>
<path d="M33.8645 125.813L20.2461 129.451V126.622L33.8645 122.984V125.813Z" fill="#727578"/>
<path d="M33.8645 119.029L20.2461 123.072V120.243L33.8645 116.201V119.029Z" fill="#727578"/>
<path d="M33.8645 112.245L20.2461 116.691V113.862L33.8645 109.416V112.245Z" fill="#727578"/>
<path d="M33.8645 105.461L20.2461 110.311V107.483L33.8645 102.633V105.461Z" fill="#727578"/>
<path d="M33.8641 98.6784L20.2461 103.933V101.105L33.8641 95.8496V98.6784Z" fill="#727578"/>
<path d="M33.8645 91.8951L20.2461 97.5536V94.7253L33.8645 89.0664V91.8951Z" fill="#727578"/>
<path d="M33.8645 85.1119L20.2461 91.1744V88.3462L33.8645 82.2832V85.1119Z" fill="#727578"/>
<path d="M33.8645 78.3268L20.2461 84.7933V81.9646L33.8645 75.498V78.3268Z" fill="#727578"/>
<path d="M33.8645 71.5436L20.2461 78.4146V75.5859L33.8645 68.7148V71.5436Z" fill="#727578"/>
<path d="M33.8645 64.7584L20.2461 72.0335V69.2053L33.8645 61.9297V64.7584Z" fill="#727578"/>
<path d="M33.8645 57.9747L20.2461 65.6544V62.8261L33.8645 55.1465V57.9747Z" fill="#727578"/>
<path d="M33.8645 51.1915L20.2461 59.2752V56.4469L33.8645 48.3633V51.1915Z" fill="#727578"/>
<path d="M212.66 191.227H225.684V57.1896L212.66 49.6582V191.227Z" fill="url(#paint8_linear_8837_177542)"/>
<path d="M224.185 177.65H222.227V182.17H224.185V177.65Z" fill="#E2E5E7"/>
<path d="M222.227 175.191L224.185 175.251V170.732L222.227 170.672V175.191Z" fill="#E2E5E7"/>
<path d="M222.227 168.213L224.185 168.332V163.813L222.227 163.693V168.213Z" fill="#E2E5E7"/>
<path d="M222.227 161.232L224.185 161.411V156.891L222.227 156.713V161.232Z" fill="#E2E5E7"/>
<path d="M222.227 154.254L224.185 154.492V149.973L222.227 149.734V154.254Z" fill="#E2E5E7"/>
<path d="M222.227 147.273L224.185 147.571V143.052L222.227 142.754V147.273Z" fill="#E2E5E7"/>
<path d="M222.227 140.295L224.185 140.652V136.133L222.227 135.775V140.295Z" fill="#E2E5E7"/>
<path d="M222.227 133.316L224.185 133.734V129.214L222.227 128.797V133.316Z" fill="#E2E5E7"/>
<path d="M222.227 126.338L224.185 126.815V122.295L222.227 121.818V126.338Z" fill="#E2E5E7"/>
<path d="M222.227 119.359L224.185 119.896V115.377L222.227 114.84V119.359Z" fill="#E2E5E7"/>
<path d="M222.227 112.377L224.185 112.973V108.454L222.227 107.857V112.377Z" fill="#E2E5E7"/>
<path d="M222.227 105.399L224.185 106.054V101.535L222.227 100.879V105.399Z" fill="#E2E5E7"/>
<path d="M222.227 98.4196L224.185 99.135V94.6153L222.227 93.9004V98.4196Z" fill="#E2E5E7"/>
<path d="M222.227 91.4392L224.185 92.2139V87.6947L222.227 86.9199V91.4392Z" fill="#E2E5E7"/>
<path d="M222.227 84.4606L224.185 85.2953V80.7755L222.227 79.9414V84.4606Z" fill="#E2E5E7"/>
<path d="M222.227 77.4821L224.185 78.3761V73.8569L222.227 72.9629V77.4821Z" fill="#E2E5E7"/>
<path d="M222.227 70.5036L224.185 71.4575V66.9377L222.227 65.9844V70.5036Z" fill="#E2E5E7"/>
<path d="M221.599 177.65H219.641V182.17H221.599V177.65Z" fill="#E2E5E7"/>
<path d="M219.641 175.104L221.599 175.163V170.643L219.641 170.584V175.104Z" fill="#E2E5E7"/>
<path d="M219.641 168.035L221.599 168.154V163.634L219.641 163.516V168.035Z" fill="#E2E5E7"/>
<path d="M219.641 160.967L221.599 161.145V156.626L219.641 156.447V160.967Z" fill="#E2E5E7"/>
<path d="M219.641 153.9L221.599 154.139V149.619L219.641 149.381V153.9Z" fill="#E2E5E7"/>
<path d="M219.641 146.832L221.599 147.13V142.61L219.641 142.312V146.832Z" fill="#E2E5E7"/>
<path d="M219.641 139.766L221.599 140.123V135.604L219.641 135.246V139.766Z" fill="#E2E5E7"/>
<path d="M219.641 132.697L221.599 133.114V128.595L219.641 128.178V132.697Z" fill="#E2E5E7"/>
<path d="M219.641 125.631L221.599 126.107V121.588L219.641 121.111V125.631Z" fill="#E2E5E7"/>
<path d="M219.641 118.563L221.599 119.099V114.579L219.641 114.043V118.563Z" fill="#E2E5E7"/>
<path d="M219.641 111.496L221.599 112.091V107.572L219.641 106.977V111.496Z" fill="#E2E5E7"/>
<path d="M219.641 104.427L221.599 105.083V100.564L219.641 99.9082V104.427Z" fill="#E2E5E7"/>
<path d="M219.641 97.3615L221.599 98.0759V93.5567L219.641 92.8418V97.3615Z" fill="#E2E5E7"/>
<path d="M219.641 90.2932L221.599 91.0674V86.5477L219.641 85.7734V90.2932Z" fill="#E2E5E7"/>
<path d="M219.641 83.2267L221.599 84.0609V79.5412L219.641 78.707V83.2267Z" fill="#E2E5E7"/>
<path d="M219.641 76.1599L221.599 77.0534V72.5341L219.641 71.6406V76.1599Z" fill="#E2E5E7"/>
<path d="M219.641 69.0915L221.599 70.0449V65.5256L219.641 64.5723V69.0915Z" fill="#E2E5E7"/>
<path d="M219.009 177.65H217.051V182.17H219.009V177.65Z" fill="#E2E5E7"/>
<path d="M217.051 175.015L219.009 175.075V170.555L217.051 170.496V175.015Z" fill="#E2E5E7"/>
<path d="M217.051 167.859L219.009 167.978V163.459L217.051 163.34V167.859Z" fill="#E2E5E7"/>
<path d="M217.051 160.703L219.009 160.882V156.362L217.051 156.184V160.703Z" fill="#E2E5E7"/>
<path d="M217.051 153.546L219.009 153.785V149.265L217.051 149.027V153.546Z" fill="#E2E5E7"/>
<path d="M217.051 146.392L219.009 146.69V142.171L217.051 141.873V146.392Z" fill="#E2E5E7"/>
<path d="M217.051 139.236L219.009 139.593V135.074L217.051 134.717V139.236Z" fill="#E2E5E7"/>
<path d="M217.051 132.082L219.009 132.499V127.98L217.051 127.562V132.082Z" fill="#E2E5E7"/>
<path d="M217.051 124.925L219.009 125.402V120.883L217.051 120.406V124.925Z" fill="#E2E5E7"/>
<path d="M217.051 117.77L219.009 118.306V113.787L217.051 113.25V117.77Z" fill="#E2E5E7"/>
<path d="M217.051 110.613L219.009 111.209V106.69L217.051 106.094V110.613Z" fill="#E2E5E7"/>
<path d="M217.051 103.459L219.009 104.114V99.595L217.051 98.9395V103.459Z" fill="#E2E5E7"/>
<path d="M217.051 96.3024L219.009 97.0173V92.4986L217.051 91.7832V96.3024Z" fill="#E2E5E7"/>
<path d="M217.051 89.1462L219.009 89.921V85.4017L217.051 84.627V89.1462Z" fill="#E2E5E7"/>
<path d="M217.051 81.9919L219.009 82.826V78.3068L217.051 77.4727V81.9919Z" fill="#E2E5E7"/>
<path d="M217.051 74.8356L219.009 75.7292V71.2104L217.051 70.3164V74.8356Z" fill="#E2E5E7"/>
<path d="M217.051 67.6799L219.009 68.6328V64.114L217.051 63.1602V67.6799Z" fill="#E2E5E7"/>
<path d="M216.427 177.65H214.469V182.17H216.427V177.65Z" fill="#E2E5E7"/>
<path d="M214.469 174.929L216.427 174.989V170.47L214.469 170.41V174.929Z" fill="#E2E5E7"/>
<path d="M214.469 167.689L216.427 167.808V163.289L214.469 163.17V167.689Z" fill="#E2E5E7"/>
<path d="M214.469 160.446L216.427 160.626V156.106L214.469 155.928V160.446Z" fill="#E2E5E7"/>
<path d="M214.469 153.207L216.427 153.445V148.926L214.469 148.688V153.207Z" fill="#E2E5E7"/>
<path d="M214.469 145.966L216.427 146.264V141.745L214.469 141.447V145.966Z" fill="#E2E5E7"/>
<path d="M214.469 138.724L216.427 139.082V134.562L214.469 134.205V138.724Z" fill="#E2E5E7"/>
<path d="M214.469 131.484L216.427 131.901V127.381L214.469 126.965V131.484Z" fill="#E2E5E7"/>
<path d="M214.469 124.244L216.427 124.721V120.201L214.469 119.725V124.244Z" fill="#E2E5E7"/>
<path d="M214.469 117.001L216.427 117.538V113.018L214.469 112.482V117.001Z" fill="#E2E5E7"/>
<path d="M214.469 109.761L216.427 110.357V105.838L214.469 105.242V109.761Z" fill="#E2E5E7"/>
<path d="M214.469 102.519L216.427 103.174V98.655L214.469 98V102.519Z" fill="#E2E5E7"/>
<path d="M214.469 95.2785L216.427 95.9944V91.4747L214.469 90.7598V95.2785Z" fill="#E2E5E7"/>
<path d="M214.469 88.0363L216.427 88.8111V84.2919L214.469 83.5176V88.0363Z" fill="#E2E5E7"/>
<path d="M214.469 80.7966L216.427 81.6307V77.1115L214.469 76.2773V80.7966Z" fill="#E2E5E7"/>
<path d="M214.469 73.5539L216.427 74.4479V69.9287L214.469 69.0352V73.5539Z" fill="#E2E5E7"/>
<path d="M214.469 66.3142L216.427 67.2675V62.7483L214.469 61.7949V66.3142Z" fill="#E2E5E7"/>
<path d="M212.66 191.227H199.637V57.1896L212.66 49.6582V191.227Z" fill="url(#paint9_linear_8837_177542)"/>
<path d="M203.091 177.65H201.133V182.17H203.091V177.65Z" fill="#727578"/>
<path d="M203.091 175.221L201.133 175.25V170.731L203.091 170.701V175.221Z" fill="#727578"/>
<path d="M203.091 168.271L201.133 168.33V163.811L203.091 163.752V168.271Z" fill="#727578"/>
<path d="M203.091 161.322L201.133 161.41V156.891L203.091 156.803V161.322Z" fill="#727578"/>
<path d="M203.091 154.374L201.133 154.492V149.973L203.091 149.855V154.374Z" fill="#727578"/>
<path d="M203.091 147.426L201.133 147.573V143.053L203.091 142.906V147.426Z" fill="#727578"/>
<path d="M203.091 140.476L201.133 140.653V136.134L203.091 135.957V140.476Z" fill="#727578"/>
<path d="M203.091 133.526L201.133 133.732V129.212L203.091 129.006V133.526Z" fill="#727578"/>
<path d="M203.091 126.577L201.133 126.813V122.294L203.091 122.059V126.577Z" fill="#727578"/>
<path d="M203.091 119.629L201.133 119.894V115.374L203.091 115.109V119.629Z" fill="#727578"/>
<path d="M203.091 112.679L201.133 112.974V108.454L203.091 108.16V112.679Z" fill="#727578"/>
<path d="M203.091 105.731L201.133 106.055V101.535L203.091 101.211V105.731Z" fill="#727578"/>
<path d="M203.091 98.781L201.133 99.1343V94.6146L203.091 94.2617V98.781Z" fill="#727578"/>
<path d="M203.091 91.8342L201.133 92.2165V87.6973L203.091 87.3145V91.8342Z" fill="#727578"/>
<path d="M203.091 84.883L201.133 85.2952V80.7755L203.091 80.3633V84.883Z" fill="#727578"/>
<path d="M203.091 77.9338L201.133 78.375V73.8558L203.091 73.4141V77.9338Z" fill="#727578"/>
<path d="M203.091 70.986L201.133 71.4572V66.9374L203.091 66.4668V70.986Z" fill="#727578"/>
<path d="M205.681 177.65H203.723V182.17H205.681V177.65Z" fill="#727578"/>
<path d="M205.681 175.131L203.723 175.16V170.64L205.681 170.611V175.131Z" fill="#727578"/>
<path d="M205.681 168.093L203.723 168.152V163.633L205.681 163.574V168.093Z" fill="#727578"/>
<path d="M205.681 161.057L203.723 161.145V156.625L205.681 156.537V161.057Z" fill="#727578"/>
<path d="M205.681 154.023L203.723 154.14V149.621L205.681 149.504V154.023Z" fill="#727578"/>
<path d="M205.681 146.983L203.723 147.129V142.61L205.681 142.463V146.983Z" fill="#727578"/>
<path d="M205.681 139.946L203.723 140.122V135.602L205.681 135.426V139.946Z" fill="#727578"/>
<path d="M205.681 132.908L203.723 133.114V128.595L205.681 128.389V132.908Z" fill="#727578"/>
<path d="M205.681 125.871L203.723 126.106V121.587L205.681 121.352V125.871Z" fill="#727578"/>
<path d="M205.681 118.834L203.723 119.098V114.579L205.681 114.314V118.834Z" fill="#727578"/>
<path d="M205.681 111.797L203.723 112.091V107.571L205.681 107.277V111.797Z" fill="#727578"/>
<path d="M205.681 104.759L203.723 105.082V100.564L205.681 100.24V104.759Z" fill="#727578"/>
<path d="M205.681 97.7228L203.723 98.0757V93.5565L205.681 93.2031V97.7228Z" fill="#727578"/>
<path d="M205.681 90.6853L203.723 91.0676V86.5483L205.681 86.166V90.6853Z" fill="#727578"/>
<path d="M205.681 83.6486L203.723 84.0604V79.5407L205.681 79.1289V83.6486Z" fill="#727578"/>
<path d="M205.681 76.611L203.723 77.0518V72.5325L205.681 72.0918V76.611Z" fill="#727578"/>
<path d="M205.681 69.5739L203.723 70.0446V65.5253L205.681 65.0547V69.5739Z" fill="#727578"/>
<path d="M208.267 177.65H206.309V182.17H208.267V177.65Z" fill="#727578"/>
<path d="M208.267 175.015L206.309 175.075V170.555L208.267 170.496V175.015Z" fill="#727578"/>
<path d="M208.267 167.859L206.309 167.978V163.459L208.267 163.34V167.859Z" fill="#727578"/>
<path d="M208.267 160.703L206.309 160.882V156.362L208.267 156.184V160.703Z" fill="#727578"/>
<path d="M208.267 153.546L206.309 153.785V149.265L208.267 149.027V153.546Z" fill="#727578"/>
<path d="M208.267 146.392L206.309 146.69V142.171L208.267 141.873V146.392Z" fill="#727578"/>
<path d="M208.267 139.236L206.309 139.593V135.074L208.267 134.717V139.236Z" fill="#727578"/>
<path d="M208.267 132.082L206.309 132.499V127.98L208.267 127.562V132.082Z" fill="#727578"/>
<path d="M208.267 124.925L206.309 125.402V120.883L208.267 120.406V124.925Z" fill="#727578"/>
<path d="M208.267 117.77L206.309 118.306V113.787L208.267 113.25V117.77Z" fill="#727578"/>
<path d="M208.267 110.613L206.309 111.209V106.69L208.267 106.094V110.613Z" fill="#727578"/>
<path d="M208.267 103.459L206.309 104.114V99.595L208.267 98.9395V103.459Z" fill="#727578"/>
<path d="M208.267 96.3024L206.309 97.0173V92.4986L208.267 91.7832V96.3024Z" fill="#727578"/>
<path d="M208.267 89.1462L206.309 89.921V85.4017L208.267 84.627V89.1462Z" fill="#727578"/>
<path d="M208.267 81.9919L206.309 82.826V78.3068L208.267 77.4727V81.9919Z" fill="#727578"/>
<path d="M208.267 74.8356L206.309 75.7292V71.2104L208.267 70.3164V74.8356Z" fill="#727578"/>
<path d="M208.267 67.6799L206.309 68.6328V64.114L208.267 63.1602V67.6799Z" fill="#727578"/>
<path d="M210.853 177.65H208.895V182.17H210.853V177.65Z" fill="#727578"/>
<path d="M210.853 174.929L208.895 174.989V170.47L210.853 170.41V174.929Z" fill="#727578"/>
<path d="M210.853 167.689L208.895 167.808V163.289L210.853 163.17V167.689Z" fill="#727578"/>
<path d="M210.853 160.446L208.895 160.626V156.106L210.853 155.928V160.446Z" fill="#727578"/>
<path d="M210.853 153.207L208.895 153.445V148.926L210.853 148.688V153.207Z" fill="#727578"/>
<path d="M210.853 145.966L208.895 146.264V141.745L210.853 141.447V145.966Z" fill="#727578"/>
<path d="M210.853 138.724L208.895 139.082V134.562L210.853 134.205V138.724Z" fill="#727578"/>
<path d="M210.853 131.484L208.895 131.901V127.381L210.853 126.965V131.484Z" fill="#727578"/>
<path d="M210.853 124.244L208.895 124.721V120.201L210.853 119.725V124.244Z" fill="#727578"/>
<path d="M210.853 117.001L208.895 117.538V113.018L210.853 112.482V117.001Z" fill="#727578"/>
<path d="M210.853 109.761L208.895 110.357V105.838L210.853 105.242V109.761Z" fill="#727578"/>
<path d="M210.853 102.519L208.895 103.174V98.655L210.853 98V102.519Z" fill="#727578"/>
<path d="M210.853 95.2785L208.895 95.9944V91.4747L210.853 90.7598V95.2785Z" fill="#727578"/>
<path d="M210.853 88.0363L208.895 88.8111V84.2919L210.853 83.5176V88.0363Z" fill="#727578"/>
<path d="M210.853 80.7966L208.895 81.6307V77.1115L210.853 76.2773V80.7966Z" fill="#727578"/>
<path d="M210.853 73.5539L208.895 74.4479V69.9287L210.853 69.0352V73.5539Z" fill="#727578"/>
<path d="M210.853 66.3142L208.895 67.2675V62.7483L210.853 61.7949V66.3142Z" fill="#727578"/>
<path d="M206.317 192.054H186.781V12.709L206.317 46.1302V192.054Z" fill="url(#paint10_linear_8837_177542)"/>
<path d="M204.38 183.613H188.73V186.48H204.38V183.613Z" fill="#E2E5E7"/>
<path d="M188.73 179.607L204.38 180.016V177.15L188.73 176.74V179.607Z" fill="#E2E5E7"/>
<path d="M188.73 172.734L204.38 173.553V170.686L188.73 169.867V172.734Z" fill="#E2E5E7"/>
<path d="M188.73 165.858L204.38 167.087V164.221L188.73 162.992V165.858Z" fill="#E2E5E7"/>
<path d="M188.73 158.983L204.38 160.621V157.755L188.73 156.117V158.983Z" fill="#E2E5E7"/>
<path d="M188.73 152.111L204.38 154.158V151.292L188.73 149.244V152.111Z" fill="#E2E5E7"/>
<path d="M188.73 145.236L204.38 147.692V144.826L188.73 142.369V145.236Z" fill="#E2E5E7"/>
<path d="M188.73 138.362L204.38 141.229V138.363L188.73 135.496V138.362Z" fill="#E2E5E7"/>
<path d="M188.73 131.487L204.38 134.764V131.898L188.73 128.621V131.487Z" fill="#E2E5E7"/>
<path d="M188.73 124.614L204.38 128.301V125.434L188.73 121.748V124.614Z" fill="#E2E5E7"/>
<path d="M188.73 117.739L204.38 121.835V118.968L188.73 114.873V117.739Z" fill="#E2E5E7"/>
<path d="M188.73 110.864L204.38 115.369V112.503L188.73 107.998V110.864Z" fill="#E2E5E7"/>
<path d="M188.73 103.991L204.38 108.906V106.04L188.73 101.125V103.991Z" fill="#E2E5E7"/>
<path d="M188.73 97.1164L204.38 102.44V99.5744L188.73 94.25V97.1164Z" fill="#E2E5E7"/>
<path d="M188.73 90.2414L204.38 95.9752V93.1088L188.73 87.375V90.2414Z" fill="#E2E5E7"/>
<path d="M188.73 83.3684L204.38 89.5115V86.6455L188.73 80.502V83.3684Z" fill="#E2E5E7"/>
<path d="M188.73 76.4929L204.38 83.0463V80.1799L188.73 73.627V76.4929Z" fill="#E2E5E7"/>
<path d="M188.73 69.6198L204.38 76.5821V73.7162L188.73 66.7539V69.6198Z" fill="#E2E5E7"/>
<path d="M188.73 62.7448L204.38 70.1169V67.251L188.73 59.8789V62.7448Z" fill="#E2E5E7"/>
<path d="M188.73 55.8718L204.38 63.6532V60.7873L188.73 53.0059V55.8718Z" fill="#E2E5E7"/>
<path d="M188.73 48.9968L204.38 57.1881V54.3222L188.73 46.1309V48.9968Z" fill="#E2E5E7"/>
<path d="M167.246 192.054H186.782V12.709L167.246 46.1302V192.054Z" fill="url(#paint11_linear_8837_177542)"/>
<path d="M184.833 183.613H169.184V186.48H184.833V183.613Z" fill="#727578"/>
<path d="M184.833 179.607L169.184 180.016V177.15L184.833 176.74V179.607Z" fill="#727578"/>
<path d="M184.833 172.734L169.184 173.553V170.686L184.833 169.867V172.734Z" fill="#727578"/>
<path d="M184.833 165.858L169.184 167.087V164.221L184.833 162.992V165.858Z" fill="#727578"/>
<path d="M184.833 158.983L169.184 160.621V157.755L184.833 156.117V158.983Z" fill="#727578"/>
<path d="M184.833 152.111L169.184 154.158V151.292L184.833 149.244V152.111Z" fill="#727578"/>
<path d="M184.833 145.236L169.184 147.692V144.826L184.833 142.369V145.236Z" fill="#727578"/>
<path d="M184.833 138.362L169.184 141.229V138.363L184.833 135.496V138.362Z" fill="#727578"/>
<path d="M184.833 131.487L169.184 134.764V131.898L184.833 128.621V131.487Z" fill="#727578"/>
<path d="M184.833 124.614L169.184 128.301V125.434L184.833 121.748V124.614Z" fill="#727578"/>
<path d="M184.833 117.739L169.184 121.835V118.968L184.833 114.873V117.739Z" fill="#727578"/>
<path d="M184.833 110.864L169.184 115.369V112.503L184.833 107.998V110.864Z" fill="#727578"/>
<path d="M184.833 103.991L169.184 108.906V106.04L184.833 101.125V103.991Z" fill="#727578"/>
<path d="M184.833 97.1164L169.184 102.44V99.5744L184.833 94.25V97.1164Z" fill="#727578"/>
<path d="M184.833 90.2414L169.184 95.9752V93.1088L184.833 87.375V90.2414Z" fill="#727578"/>
<path d="M184.833 83.3684L169.184 89.5115V86.6455L184.833 80.502V83.3684Z" fill="#727578"/>
<path d="M184.833 76.4929L169.184 83.0463V80.1799L184.833 73.627V76.4929Z" fill="#727578"/>
<path d="M184.833 69.6198L169.184 76.5821V73.7162L184.833 66.7539V69.6198Z" fill="#727578"/>
<path d="M184.833 62.7448L169.184 70.1169V67.251L184.833 59.8789V62.7448Z" fill="#727578"/>
<path d="M184.833 55.8718L169.184 63.6532V60.7873L184.833 53.0059V55.8718Z" fill="#727578"/>
<path d="M184.833 48.9968L169.184 57.1881V54.3222L184.833 46.1309V48.9968Z" fill="#727578"/>
<path d="M162.656 194.408H181.744V135.281L162.656 131.959V194.408Z" fill="url(#paint12_linear_8837_177542)"/>
<path d="M162.655 194.408H143.566V135.281L162.655 131.959V194.408Z" fill="url(#paint13_linear_8837_177542)"/>
<path d="M179.447 185.299H176.258V190.411H179.447V185.299Z" fill="#E2E5E7"/>
<path d="M176.258 176.051L179.447 176.145V181.257L176.258 181.163V176.051Z" fill="#E2E5E7"/>
<path d="M176.258 166.803L179.447 166.991V172.103L176.258 171.915V166.803Z" fill="#E2E5E7"/>
<path d="M176.258 157.557L179.447 157.84V162.952L176.258 162.669V157.557Z" fill="#E2E5E7"/>
<path d="M176.258 148.309L179.447 148.685V153.797L176.258 153.42V148.309Z" fill="#E2E5E7"/>
<path d="M176.258 139.061L179.447 139.531V144.643L176.258 144.172V139.061Z" fill="#E2E5E7"/>
<path d="M173.795 185.301H170.605V190.413H173.795V185.301Z" fill="#E2E5E7"/>
<path d="M170.605 175.898L173.794 175.992V181.105L170.605 181.01V175.898Z" fill="#E2E5E7"/>
<path d="M170.605 166.494L173.794 166.682V171.794L170.605 171.606V166.494Z" fill="#E2E5E7"/>
<path d="M170.605 157.092L173.794 157.375V162.487L170.605 162.204V157.092Z" fill="#E2E5E7"/>
<path d="M170.605 147.689L173.794 148.066V153.178L170.605 152.801V147.689Z" fill="#E2E5E7"/>
<path d="M170.605 138.287L173.794 138.758V143.87L170.605 143.399V138.287Z" fill="#E2E5E7"/>
<path d="M168.147 185.303H164.957V190.415H168.147V185.303Z" fill="#E2E5E7"/>
<path d="M164.957 175.748L168.147 175.842V180.954L164.957 180.86V175.748Z" fill="#E2E5E7"/>
<path d="M164.957 166.191L168.147 166.38V171.492L164.957 171.303V166.191Z" fill="#E2E5E7"/>
<path d="M164.957 156.637L168.147 156.919V162.031L164.957 161.749V156.637Z" fill="#E2E5E7"/>
<path d="M164.957 147.082L168.147 147.458V152.571L164.957 152.194V147.082Z" fill="#E2E5E7"/>
<path d="M164.957 137.527L168.147 137.998V143.11L164.957 142.639V137.527Z" fill="#E2E5E7"/>
<path d="M149.057 185.299H145.867V190.411H149.057V185.299Z" fill="#727578"/>
<path d="M149.056 176.051L145.867 176.145V181.257L149.056 181.163V176.051Z" fill="#727578"/>
<path d="M149.056 166.803L145.867 166.991V172.103L149.056 171.915V166.803Z" fill="#727578"/>
<path d="M149.056 157.557L145.867 157.84V162.952L149.056 162.669V157.557Z" fill="#727578"/>
<path d="M149.056 148.309L145.867 148.685V153.797L149.056 153.42V148.309Z" fill="#727578"/>
<path d="M149.056 139.061L145.867 139.531V144.643L149.056 144.172V139.061Z" fill="#727578"/>
<path d="M154.705 185.301H151.516V190.413H154.705V185.301Z" fill="#727578"/>
<path d="M154.705 175.898L151.516 175.992V181.105L154.705 181.01V175.898Z" fill="#727578"/>
<path d="M154.705 166.494L151.516 166.682V171.794L154.705 171.606V166.494Z" fill="#727578"/>
<path d="M154.705 157.092L151.516 157.375V162.487L154.705 162.204V157.092Z" fill="#727578"/>
<path d="M154.705 147.689L151.516 148.066V153.178L154.705 152.801V147.689Z" fill="#727578"/>
<path d="M154.705 138.287L151.516 138.758V143.87L154.705 143.399V138.287Z" fill="#727578"/>
<path d="M160.358 185.303H157.168V190.415H160.358V185.303Z" fill="#727578"/>
<path d="M160.358 175.748L157.168 175.842V180.954L160.358 180.86V175.748Z" fill="#727578"/>
<path d="M160.358 166.191L157.168 166.38V171.492L160.358 171.303V166.191Z" fill="#727578"/>
<path d="M160.358 156.637L157.168 156.919V162.031L160.358 161.749V156.637Z" fill="#727578"/>
<path d="M160.358 147.082L157.168 147.458V152.571L160.358 152.194V147.082Z" fill="#727578"/>
<path d="M160.358 137.527L157.168 137.998V143.11L160.358 142.639V137.527Z" fill="#727578"/>
<path d="M76.07 192.368H59.0703V36.9863L76.07 48.3636V192.368Z" fill="url(#paint14_linear_8837_177542)"/>
<path d="M74.3833 184.039H60.7656V186.868H74.3833V184.039Z" fill="#E2E5E7"/>
<path d="M60.7656 180.083L74.3833 180.487V177.658L60.7656 177.254V180.083Z" fill="#E2E5E7"/>
<path d="M60.7656 173.299L74.3833 174.108V171.279L60.7656 170.471V173.299Z" fill="#E2E5E7"/>
<path d="M60.7656 166.516L74.3833 167.728V164.9L60.7656 163.688V166.516Z" fill="#E2E5E7"/>
<path d="M60.7656 159.733L74.3833 161.35V158.521L60.7656 156.904V159.733Z" fill="#E2E5E7"/>
<path d="M60.7656 152.949L74.3833 154.971V152.142L60.7656 150.121V152.949Z" fill="#E2E5E7"/>
<path d="M60.7656 146.165L74.3833 148.59V145.761L60.7656 143.336V146.165Z" fill="#E2E5E7"/>
<path d="M60.7656 139.382L74.3833 142.211V139.382L60.7656 136.553V139.382Z" fill="#E2E5E7"/>
<path d="M60.7656 132.596L74.3833 135.829V133.001L60.7656 129.768V132.596Z" fill="#E2E5E7"/>
<path d="M60.7656 125.813L74.3833 129.451V126.622L60.7656 122.984V125.813Z" fill="#E2E5E7"/>
<path d="M60.7656 119.029L74.3833 123.072V120.243L60.7656 116.201V119.029Z" fill="#E2E5E7"/>
<path d="M60.7656 112.245L74.3833 116.691V113.862L60.7656 109.416V112.245Z" fill="#E2E5E7"/>
<path d="M60.7656 105.461L74.3833 110.311V107.483L60.7656 102.633V105.461Z" fill="#E2E5E7"/>
<path d="M60.7656 98.6784L74.3833 103.933V101.105L60.7656 95.8496V98.6784Z" fill="#E2E5E7"/>
<path d="M60.7656 91.8951L74.3833 97.5536V94.7253L60.7656 89.0664V91.8951Z" fill="#E2E5E7"/>
<path d="M60.7656 85.1119L74.3833 91.1744V88.3462L60.7656 82.2832V85.1119Z" fill="#E2E5E7"/>
<path d="M60.7656 78.3268L74.3833 84.7933V81.9646L60.7656 75.498V78.3268Z" fill="#E2E5E7"/>
<path d="M60.7656 71.5436L74.3833 78.4146V75.5859L60.7656 68.7148V71.5436Z" fill="#E2E5E7"/>
<path d="M60.7656 64.7584L74.3833 72.0335V69.2053L60.7656 61.9297V64.7584Z" fill="#E2E5E7"/>
<path d="M60.7656 57.9747L74.3833 65.6544V62.8261L60.7656 55.1465V57.9747Z" fill="#E2E5E7"/>
<path d="M60.7656 51.1915L74.3833 59.2752V56.4469L60.7656 48.3633V51.1915Z" fill="#E2E5E7"/>
<path d="M42.0703 192.368H59.0703V36.9863L42.0703 48.3636V192.368Z" fill="url(#paint15_linear_8837_177542)"/>
<path d="M57.3755 184.039H43.7578V186.868H57.3755V184.039Z" fill="#727578"/>
<path d="M57.3759 180.083L43.7578 180.487V177.658L57.3759 177.254V180.083Z" fill="#727578"/>
<path d="M57.3759 173.301L43.7578 174.11V171.281L57.3759 170.473V173.301Z" fill="#727578"/>
<path d="M57.3759 166.516L43.7578 167.728V164.9L57.3759 163.688V166.516Z" fill="#727578"/>
<path d="M57.3759 159.733L43.7578 161.35V158.521L57.3759 156.904V159.733Z" fill="#727578"/>
<path d="M57.3759 152.947L43.7578 154.969V152.14L57.3759 150.119V152.947Z" fill="#727578"/>
<path d="M57.3759 146.165L43.7578 148.59V145.761L57.3759 143.336V146.165Z" fill="#727578"/>
<path d="M57.3759 139.38L43.7578 142.209V139.38L57.3759 136.551V139.38Z" fill="#727578"/>
<path d="M57.3759 132.596L43.7578 135.829V133.001L57.3759 129.768V132.596Z" fill="#727578"/>
<path d="M57.3762 125.813L43.7578 129.451V126.622L57.3762 122.984V125.813Z" fill="#727578"/>
<path d="M57.3759 119.029L43.7578 123.072V120.243L57.3759 116.201V119.029Z" fill="#727578"/>
<path d="M57.3759 112.245L43.7578 116.691V113.862L57.3759 109.416V112.245Z" fill="#727578"/>
<path d="M57.3759 105.461L43.7578 110.311V107.483L57.3759 102.633V105.461Z" fill="#727578"/>
<path d="M57.3759 98.6784L43.7578 103.933V101.105L57.3759 95.8496V98.6784Z" fill="#727578"/>
<path d="M57.3759 91.8951L43.7578 97.5536V94.7253L57.3759 89.0664V91.8951Z" fill="#727578"/>
<path d="M57.3759 85.1119L43.7578 91.1744V88.3462L57.3759 82.2832V85.1119Z" fill="#727578"/>
<path d="M57.3759 78.3268L43.7578 84.7933V81.9646L57.3759 75.498V78.3268Z" fill="#727578"/>
<path d="M57.3759 71.5436L43.7578 78.4146V75.5859L57.3759 68.7148V71.5436Z" fill="#727578"/>
<path d="M57.3759 64.7584L43.7578 72.0335V69.2053L57.3759 61.9297V64.7584Z" fill="#727578"/>
<path d="M57.3759 57.9747L43.7578 65.6544V62.8261L57.3759 55.1465V57.9747Z" fill="#727578"/>
<path d="M57.3759 51.1915L43.7578 59.2752V56.4469L57.3759 48.3633V51.1915Z" fill="#727578"/>
<path d="M82.168 192.639H102.293V10.2486L82.168 0V192.639Z" fill="url(#paint16_linear_8837_177542)"/>
<path d="M99.9743 174.164H96.9492V180.313H99.9743V174.164Z" fill="#E2E5E7"/>
<path d="M96.9492 170.796L99.9743 170.897V164.747L96.9492 164.646V170.796Z" fill="#E2E5E7"/>
<path d="M96.9492 161.28L99.9743 161.481V155.332L96.9492 155.131V161.28Z" fill="#E2E5E7"/>
<path d="M96.9492 151.765L99.9743 152.065V145.916L96.9492 145.615V151.765Z" fill="#E2E5E7"/>
<path d="M96.9492 142.249L99.9743 142.65V136.501L96.9492 136.1V142.249Z" fill="#E2E5E7"/>
<path d="M96.9492 132.733L99.9743 133.235V127.086L96.9492 126.584V132.733Z" fill="#E2E5E7"/>
<path d="M96.9492 123.218L99.9743 123.82V117.671L96.9492 117.068V123.218Z" fill="#E2E5E7"/>
<path d="M96.9492 113.7L99.9743 114.402V108.253L96.9492 107.551V113.7Z" fill="#E2E5E7"/>
<path d="M96.9492 104.185L99.9743 104.988V98.8384L96.9492 98.0352V104.185Z" fill="#E2E5E7"/>
<path d="M96.9492 94.6689L99.9743 95.5721V89.4227L96.9492 88.5195V94.6689Z" fill="#E2E5E7"/>
<path d="M96.9492 85.1513L99.9743 86.1554V80.006L96.9492 79.002V85.1513Z" fill="#E2E5E7"/>
<path d="M96.9492 75.6372L99.9743 76.7416V70.5923L96.9492 69.4883V75.6372Z" fill="#E2E5E7"/>
<path d="M96.9492 66.1201L99.9743 67.3245V61.1751L96.9492 59.9707V66.1201Z" fill="#E2E5E7"/>
<path d="M96.9492 56.603L99.9743 57.9078V51.7584L96.9492 50.4531V56.603Z" fill="#E2E5E7"/>
<path d="M96.9492 47.0869L99.9743 48.4921V42.3427L96.9492 40.9375V47.0869Z" fill="#E2E5E7"/>
<path d="M96.9492 37.5708L99.9743 39.0769V32.9275L96.9492 31.4219V37.5708Z" fill="#E2E5E7"/>
<path d="M96.9492 28.0556L99.9743 29.6621V23.5123L96.9492 21.9062V28.0556Z" fill="#E2E5E7"/>
<path d="M95.9778 174.164H92.9531V180.313H95.9778V174.164Z" fill="#E2E5E7"/>
<path d="M92.9531 170.679L95.9778 170.779V164.63L92.9531 164.529V170.679Z" fill="#E2E5E7"/>
<path d="M92.9531 161.04L95.9778 161.24V155.091L92.9531 154.891V161.04Z" fill="#E2E5E7"/>
<path d="M92.9531 151.405L95.9778 151.706V145.557L92.9531 145.256V151.405Z" fill="#E2E5E7"/>
<path d="M92.9531 141.768L95.9778 142.169V136.02L92.9531 135.619V141.768Z" fill="#E2E5E7"/>
<path d="M92.9531 132.133L95.9778 132.635V126.486L92.9531 125.984V132.133Z" fill="#E2E5E7"/>
<path d="M92.9531 122.497L95.9778 123.099V116.95L92.9531 116.348V122.497Z" fill="#E2E5E7"/>
<path d="M92.9531 112.86L95.9778 113.563V107.414L92.9531 106.711V112.86Z" fill="#E2E5E7"/>
<path d="M92.9531 103.226L95.9778 104.028V97.8794L92.9531 97.0762V103.226Z" fill="#E2E5E7"/>
<path d="M92.9531 93.5884L95.9778 94.4915V88.3426L92.9531 87.4395V93.5884Z" fill="#E2E5E7"/>
<path d="M92.9531 83.9521L95.9778 84.9557V78.8063L92.9531 77.8027V83.9521Z" fill="#E2E5E7"/>
<path d="M92.9531 74.3159L95.9778 75.4194V69.2705L92.9531 68.166V74.3159Z" fill="#E2E5E7"/>
<path d="M92.9531 64.6792L95.9778 65.8831V59.7342L92.9531 58.5293V64.6792Z" fill="#E2E5E7"/>
<path d="M92.9531 55.0434L95.9778 56.3482V50.1993L92.9531 48.8945V55.0434Z" fill="#E2E5E7"/>
<path d="M92.9531 45.4072L95.9778 46.8124V40.6635L92.9531 39.2578V45.4072Z" fill="#E2E5E7"/>
<path d="M92.9531 35.7724L95.9778 37.2776V31.1286L92.9531 29.623V35.7724Z" fill="#E2E5E7"/>
<path d="M92.9531 26.1357L95.9778 27.7412V21.5923L92.9531 19.9863V26.1357Z" fill="#E2E5E7"/>
<path d="M91.9817 174.162H88.957V180.311H91.9817V174.162Z" fill="#E2E5E7"/>
<path d="M88.957 170.558L91.9814 170.658V164.509L88.957 164.408V170.558Z" fill="#E2E5E7"/>
<path d="M88.957 160.8L91.9814 161.001V154.851L88.957 154.65V160.8Z" fill="#E2E5E7"/>
<path d="M88.957 151.044L91.9814 151.345V145.196L88.957 144.895V151.044Z" fill="#E2E5E7"/>
<path d="M88.957 141.286L91.9814 141.687V135.538L88.957 135.137V141.286Z" fill="#E2E5E7"/>
<path d="M88.957 131.53L91.9814 132.031V125.882L88.957 125.381V131.53Z" fill="#E2E5E7"/>
<path d="M88.957 121.776L91.9814 122.378V116.229L88.957 115.627V121.776Z" fill="#E2E5E7"/>
<path d="M88.957 112.019L91.9814 112.721V106.572L88.957 105.869V112.019Z" fill="#E2E5E7"/>
<path d="M88.957 102.263L91.9814 103.066V96.9165L88.957 96.1133V102.263Z" fill="#E2E5E7"/>
<path d="M88.957 92.5049L91.9814 93.408V87.2591L88.957 86.3555V92.5049Z" fill="#E2E5E7"/>
<path d="M88.957 82.749L91.9814 83.7526V77.6032L88.957 76.5996V82.749Z" fill="#E2E5E7"/>
<path d="M88.957 72.9931L91.9814 74.0976V67.9482L88.957 66.8438V72.9931Z" fill="#E2E5E7"/>
<path d="M88.957 63.2392L91.9814 64.4436V58.2947L88.957 57.0898V63.2392Z" fill="#E2E5E7"/>
<path d="M88.957 53.4814L91.9814 54.7867V48.6368L88.957 47.332V53.4814Z" fill="#E2E5E7"/>
<path d="M88.957 43.7256L91.9814 45.1312V38.9819L88.957 37.5762V43.7256Z" fill="#E2E5E7"/>
<path d="M88.957 33.9682L91.9814 35.4738V29.324L88.957 27.8184V33.9682Z" fill="#E2E5E7"/>
<path d="M88.957 24.2124L91.9814 25.8184V19.6685L88.957 18.0625V24.2124Z" fill="#E2E5E7"/>
<path d="M87.9892 174.164H84.9648V180.313H87.9892V174.164Z" fill="#E2E5E7"/>
<path d="M84.9648 170.44L87.9892 170.541V164.391L84.9648 164.291V170.44Z" fill="#E2E5E7"/>
<path d="M84.9648 160.569L87.9892 160.77V154.621L84.9648 154.42V160.569Z" fill="#E2E5E7"/>
<path d="M84.9648 150.696L87.9892 150.997V144.848L84.9648 144.547V150.696Z" fill="#E2E5E7"/>
<path d="M84.9648 140.823L87.9892 141.224V135.075L84.9648 134.674V140.823Z" fill="#E2E5E7"/>
<path d="M84.9648 130.952L87.9892 131.454V125.304L84.9648 124.803V130.952Z" fill="#E2E5E7"/>
<path d="M84.9648 121.079L87.9892 121.682V115.532L84.9648 114.93V121.079Z" fill="#E2E5E7"/>
<path d="M84.9648 111.206L87.9892 111.909V105.759L84.9648 105.057V111.206Z" fill="#E2E5E7"/>
<path d="M84.9648 101.332L87.9892 102.136V95.9864L84.9648 95.1836V101.332Z" fill="#E2E5E7"/>
<path d="M84.9648 91.4595L87.9892 92.3631V86.2137L84.9648 85.3105V91.4595Z" fill="#E2E5E7"/>
<path d="M84.9648 81.5888L87.9892 82.5924V76.443L84.9648 75.4395V81.5888Z" fill="#E2E5E7"/>
<path d="M84.9648 71.7158L87.9892 72.8203V66.6709L84.9648 65.5664V71.7158Z" fill="#E2E5E7"/>
<path d="M84.9648 61.8432L87.9892 63.0476V56.8982L84.9648 55.6934V61.8432Z" fill="#E2E5E7"/>
<path d="M84.9648 51.9716L87.9892 53.2764V47.1271L84.9648 45.8223V51.9716Z" fill="#E2E5E7"/>
<path d="M84.9648 42.1006L87.9892 43.5062V37.3569L84.9648 35.9512V42.1006Z" fill="#E2E5E7"/>
<path d="M84.9648 32.228L87.9892 33.7336V27.5842L84.9648 26.0781V32.228Z" fill="#E2E5E7"/>
<path d="M84.9648 22.3545L87.9892 23.9605V17.8111L84.9648 16.2051V22.3545Z" fill="#E2E5E7"/>
<path d="M82.1682 192.639H62.043V10.2486L82.1682 0V192.639Z" fill="url(#paint17_linear_8837_177542)"/>
<path d="M67.388 174.164H64.3633V180.313H67.388V174.164Z" fill="#727578"/>
<path d="M67.3857 170.802L64.3633 170.898V164.748L67.3857 164.652V170.802Z" fill="#727578"/>
<path d="M67.384 161.29L64.3633 161.483V155.334L67.384 155.141V161.29Z" fill="#727578"/>
<path d="M67.382 151.776L64.3633 152.065V145.916L67.382 145.627V151.776Z" fill="#727578"/>
<path d="M67.3796 142.266L64.3633 142.652V136.502L67.3796 136.117V142.266Z" fill="#727578"/>
<path d="M67.378 132.754L64.3633 133.237V127.087L67.378 126.605V132.754Z" fill="#727578"/>
<path d="M67.376 123.241L64.3633 123.819V117.67L67.376 117.092V123.241Z" fill="#727578"/>
<path d="M67.374 113.728L64.3633 114.402V108.253L67.374 107.578V113.728Z" fill="#727578"/>
<path d="M67.372 104.216L64.3633 104.987V98.8378L67.372 98.0664V104.216Z" fill="#727578"/>
<path d="M67.3703 94.7041L64.3633 95.5715V89.4221L67.3703 88.5547V94.7041Z" fill="#727578"/>
<path d="M67.368 85.1924L64.3633 86.1563V80.007L67.368 79.043V85.1924Z" fill="#727578"/>
<path d="M67.366 75.6811L64.3633 76.7417V70.5923L67.366 69.5312V75.6811Z" fill="#727578"/>
<path d="M67.3643 66.1694L64.3633 67.326V61.1766L67.3643 60.0195V66.1694Z" fill="#727578"/>
<path d="M67.3623 56.6552L64.3633 57.9089V51.7595L67.3623 50.5059V56.6552Z" fill="#727578"/>
<path d="M67.3603 47.144L64.3633 48.4932V42.3438L67.3603 40.9941V47.144Z" fill="#727578"/>
<path d="M67.3583 37.6318L64.3633 39.078V32.9287L67.3583 31.4824V37.6318Z" fill="#727578"/>
<path d="M67.3563 28.1201L64.3633 29.6629V23.513L67.3563 21.9707V28.1201Z" fill="#727578"/>
<path d="M71.3798 174.162H68.3555V180.311H71.3798V174.162Z" fill="#727578"/>
<path d="M71.3835 170.675L68.3555 170.778V164.628L71.3835 164.525V170.675Z" fill="#727578"/>
<path d="M71.3875 161.036L68.3555 161.241V155.092L71.3875 154.887V161.036Z" fill="#727578"/>
<path d="M71.3912 151.397L68.3555 151.706V145.557L71.3912 145.248V151.397Z" fill="#727578"/>
<path d="M71.3952 141.758L68.3555 142.17V136.021L71.3952 135.609V141.758Z" fill="#727578"/>
<path d="M71.3992 132.118L68.3555 132.632V126.483L71.3992 125.969V132.118Z" fill="#727578"/>
<path d="M71.4032 122.481L68.3555 123.098V116.949L71.4032 116.332V122.481Z" fill="#727578"/>
<path d="M71.4072 112.843L68.3555 113.562V107.414L71.4072 106.693V112.843Z" fill="#727578"/>
<path d="M71.4109 103.204L68.3555 104.027V97.8777L71.4109 97.0547V103.204Z" fill="#727578"/>
<path d="M71.4149 93.5654L68.3555 94.4903V88.3414L71.4149 87.416V93.5654Z" fill="#727578"/>
<path d="M71.4189 83.9248L68.3555 84.9535V78.8041L71.4189 77.7754V83.9248Z" fill="#727578"/>
<path d="M71.4229 74.2876L68.3555 75.4186V69.2697L71.4229 68.1387V74.2876Z" fill="#727578"/>
<path d="M71.4269 64.6494L68.3555 65.8832V59.7343L71.4269 58.5V64.6494Z" fill="#727578"/>
<path d="M71.4309 55.0092L68.3555 56.3459V50.197L71.4309 48.8594V55.0092Z" fill="#727578"/>
<path d="M71.4346 45.3701L68.3555 46.81V40.6611L71.4346 39.2207V45.3701Z" fill="#727578"/>
<path d="M71.4386 35.7334L68.3555 37.2757V31.1268L71.4386 29.584V35.7334Z" fill="#727578"/>
<path d="M71.4426 26.0947L68.3555 27.7398V21.5909L71.4426 19.9453V26.0947Z" fill="#727578"/>
<path d="M75.3763 174.166H72.3516V180.315H75.3763V174.166Z" fill="#727578"/>
<path d="M75.3803 170.557L72.3516 170.66V164.511L75.3803 164.408V170.557Z" fill="#727578"/>
<path d="M75.384 160.799L72.3516 161.005V154.856L75.384 154.65V160.799Z" fill="#727578"/>
<path d="M75.388 151.04L72.3516 151.348V145.199L75.388 144.891V151.04Z" fill="#727578"/>
<path d="M75.392 141.28L72.3516 141.692V135.543L75.392 135.131V141.28Z" fill="#727578"/>
<path d="M75.396 131.52L72.3516 132.034V125.885L75.396 125.371V131.52Z" fill="#727578"/>
<path d="M75.4 121.763L72.3516 122.38V116.231L75.4 115.613V121.763Z" fill="#727578"/>
<path d="M75.4036 112.004L72.3516 112.725V106.575L75.4036 105.855V112.004Z" fill="#727578"/>
<path d="M75.4077 102.243L72.3516 103.066V96.9168L75.4077 96.0938V102.243Z" fill="#727578"/>
<path d="M75.4113 92.4873L72.3516 93.4126V87.2637L75.4113 86.3379V92.4873Z" fill="#727578"/>
<path d="M75.4157 82.7275L72.3516 83.7557V77.6063L75.4157 76.5781V82.7275Z" fill="#727578"/>
<path d="M75.4197 72.9697L72.3516 74.1012V67.9518L75.4197 66.8203V72.9697Z" fill="#727578"/>
<path d="M75.4237 63.2104L72.3516 64.4442V58.2953L75.4237 57.0605V63.2104Z" fill="#727578"/>
<path d="M75.4274 53.4521L72.3516 54.7893V48.6394L75.4274 47.3027V53.4521Z" fill="#727578"/>
<path d="M75.4314 43.6943L72.3516 45.1343V38.9849L75.4314 37.5449V43.6943Z" fill="#727578"/>
<path d="M75.4354 33.9341L72.3516 35.4773V29.3274L75.4354 27.7852V33.9341Z" fill="#727578"/>
<path d="M75.4394 24.1753L72.3516 25.8209V19.671L75.4394 18.0254V24.1753Z" fill="#727578"/>
<path d="M79.3688 174.162H76.3438V180.311H79.3688V174.162Z" fill="#727578"/>
<path d="M79.3728 170.436L76.3438 170.539V164.39L79.3728 164.287V170.436Z" fill="#727578"/>
<path d="M79.3765 160.561L76.3438 160.767V154.618L79.3765 154.412V160.561Z" fill="#727578"/>
<path d="M79.3805 150.688L76.3438 150.997V144.848L79.3805 144.539V150.688Z" fill="#727578"/>
<path d="M79.3845 140.813L76.3438 141.224V135.075L79.3845 134.664V140.813Z" fill="#727578"/>
<path d="M79.3882 130.938L76.3438 131.453V125.303L79.3882 124.789V130.938Z" fill="#727578"/>
<path d="M79.3922 121.063L76.3438 121.681V115.531L79.3922 114.914V121.063Z" fill="#727578"/>
<path d="M79.3962 111.188L76.3438 111.909V105.759L79.3962 105.039V111.188Z" fill="#727578"/>
<path d="M79.4002 101.313L76.3438 102.136V95.9871L79.4002 95.1641V101.313Z" fill="#727578"/>
<path d="M79.4042 91.438L76.3438 92.3638V86.2144L79.4042 85.2891V91.438Z" fill="#727578"/>
<path d="M79.4079 81.5639L76.3438 82.5921V76.4427L79.4079 75.4141V81.5639Z" fill="#727578"/>
<path d="M79.4122 71.6865L76.3438 72.818V66.6686L79.4122 65.5371V71.6865Z" fill="#727578"/>
<path d="M79.4159 61.8134L76.3438 63.0478V56.8984L79.4159 55.6641V61.8134Z" fill="#727578"/>
<path d="M79.4199 51.9384L76.3438 53.2756V47.1262L79.4199 45.7891V51.9384Z" fill="#727578"/>
<path d="M79.4239 42.0634L76.3438 43.5034V37.354L79.4239 35.9141V42.0634Z" fill="#727578"/>
<path d="M79.4279 32.1885L76.3438 33.7312V27.5818L79.4279 26.0391V32.1885Z" fill="#727578"/>
<path d="M79.4316 22.3134L76.3438 23.959V17.8097L79.4316 16.1641V22.3134Z" fill="#727578"/>
<path d="M106.426 132.43V194.879H127.19V136.287L106.426 132.43Z" fill="url(#paint18_linear_8837_177542)"/>
<path d="M125.44 183.816H108.762V186.803H125.44V183.816Z" fill="#E2E5E7"/>
<path d="M108.762 178.357L125.44 178.679V181.666L108.762 181.344V178.357Z" fill="#E2E5E7"/>
<path d="M108.762 172.895L125.44 173.539V176.526L108.762 175.881V172.895Z" fill="#E2E5E7"/>
<path d="M108.762 167.436L125.44 168.402V171.389L108.762 170.422V167.436Z" fill="#E2E5E7"/>
<path d="M108.762 161.973L125.44 163.261V166.248L108.762 164.959V161.973Z" fill="#E2E5E7"/>
<path d="M108.762 156.512L125.44 158.123V161.11L108.762 159.499V156.512Z" fill="#E2E5E7"/>
<path d="M108.762 151.051L125.44 152.984V155.971L108.762 154.037V151.051Z" fill="#E2E5E7"/>
<path d="M108.762 145.59L125.44 147.845V150.832L108.762 148.576V145.59Z" fill="#E2E5E7"/>
<path d="M108.762 140.129L125.44 142.706V145.693L108.762 143.115V140.129Z" fill="#E2E5E7"/>
<path d="M106.424 132.43V194.879H85.6602V136.287L106.424 132.43Z" fill="url(#paint19_linear_8837_177542)"/>
<path d="M104.088 183.816H87.4102V186.803H104.088V183.816Z" fill="#727578"/>
<path d="M104.088 178.357L87.4102 178.679V181.666L104.088 181.344V178.357Z" fill="#727578"/>
<path d="M104.088 172.895L87.4102 173.539V176.526L104.088 175.881V172.895Z" fill="#727578"/>
<path d="M104.088 167.436L87.4102 168.402V171.389L104.088 170.422V167.436Z" fill="#727578"/>
<path d="M104.088 161.973L87.4102 163.261V166.248L104.088 164.959V161.973Z" fill="#727578"/>
<path d="M104.088 156.512L87.4102 158.123V161.11L104.088 159.499V156.512Z" fill="#727578"/>
<path d="M104.088 151.051L87.4102 152.984V155.971L104.088 154.037V151.051Z" fill="#727578"/>
<path d="M104.088 145.59L87.4102 147.845V150.832L104.088 148.576V145.59Z" fill="#727578"/>
<path d="M104.088 140.129L87.4102 142.706V145.693L104.088 143.115V140.129Z" fill="#727578"/>
<path d="M156.99 194.88H133.395V4.70703L156.99 18.6311V194.88Z" fill="url(#paint20_linear_8837_177542)"/>
<path d="M154.651 184.686H135.75V188.147H154.651V184.686Z" fill="#E2E5E7"/>
<path d="M135.75 179.844L154.652 180.339V176.877L135.75 176.383V179.844Z" fill="#E2E5E7"/>
<path d="M135.75 171.542L154.652 172.531V169.069L135.75 168.08V171.542Z" fill="#E2E5E7"/>
<path d="M135.75 163.239L154.652 164.723V161.261L135.75 159.777V163.239Z" fill="#E2E5E7"/>
<path d="M135.75 154.936L154.652 156.915V153.453L135.75 151.475V154.936Z" fill="#E2E5E7"/>
<path d="M135.75 146.633L154.652 149.106V145.645L135.75 143.172V146.633Z" fill="#E2E5E7"/>
<path d="M135.75 138.329L154.652 141.297V137.835L135.75 134.867V138.329Z" fill="#E2E5E7"/>
<path d="M135.75 130.027L154.652 133.489V130.027L135.75 126.564V130.027Z" fill="#E2E5E7"/>
<path d="M135.75 121.725L154.652 125.682V122.221L135.75 118.264V121.725Z" fill="#E2E5E7"/>
<path d="M135.75 113.423L154.652 117.875V114.413L135.75 109.961V113.423Z" fill="#E2E5E7"/>
<path d="M135.75 105.12L154.652 110.066V106.605L135.75 101.658V105.12Z" fill="#E2E5E7"/>
<path d="M135.75 96.8171L154.652 102.259V98.7967L135.75 93.3555V96.8171Z" fill="#E2E5E7"/>
<path d="M135.75 88.5129L154.652 94.4489V90.9868L135.75 85.0508V88.5129Z" fill="#E2E5E7"/>
<path d="M135.75 80.2121L154.652 86.6429V83.1813L135.75 76.75V80.2121Z" fill="#E2E5E7"/>
<path d="M135.75 71.9093L154.652 78.8349V75.3729L135.75 68.4473V71.9093Z" fill="#E2E5E7"/>
<path d="M135.75 63.6061L154.652 71.0265V67.5644L135.75 60.1445V63.6061Z" fill="#E2E5E7"/>
<path d="M135.75 55.3039L154.652 63.2186V59.7565L135.75 51.8418V55.3039Z" fill="#E2E5E7"/>
<path d="M135.75 47.0007L154.652 55.4097V51.9485L135.75 43.5391V47.0007Z" fill="#E2E5E7"/>
<path d="M135.75 38.6979L154.652 47.6022V44.1401L135.75 35.2363V38.6979Z" fill="#E2E5E7"/>
<path d="M135.75 30.3957L154.652 39.7942V36.3322L135.75 26.9336V30.3957Z" fill="#E2E5E7"/>
<path d="M135.75 22.0929L154.652 31.9863V28.5242L135.75 18.6309V22.0929Z" fill="#E2E5E7"/>
<path d="M109.801 194.88H133.396V4.70703L109.801 18.6311V194.88Z" fill="url(#paint21_linear_8837_177542)"/>
<path d="M131.046 184.686H112.145V188.147H131.046V184.686Z" fill="#727578"/>
<path d="M131.046 179.846L112.145 180.341V176.879L131.046 176.385V179.846Z" fill="#727578"/>
<path d="M131.046 171.544L112.145 172.533V169.071L131.046 168.082V171.544Z" fill="#727578"/>
<path d="M131.046 163.239L112.145 164.723V161.261L131.046 159.777V163.239Z" fill="#727578"/>
<path d="M131.046 154.936L112.145 156.915V153.453L131.046 151.475V154.936Z" fill="#727578"/>
<path d="M131.046 146.633L112.145 149.106V145.645L131.046 143.172V146.633Z" fill="#727578"/>
<path d="M131.046 138.331L112.145 141.299V137.837L131.046 134.869V138.331Z" fill="#727578"/>
<path d="M131.046 130.028L112.145 133.491V130.029L131.046 126.566V130.028Z" fill="#727578"/>
<path d="M131.046 121.727L112.145 125.684V122.223L131.046 118.266V121.727Z" fill="#727578"/>
<path d="M131.046 113.423L112.145 117.875V114.413L131.046 109.961V113.423Z" fill="#727578"/>
<path d="M131.046 105.122L112.145 110.068V106.607L131.046 101.66V105.122Z" fill="#727578"/>
<path d="M131.046 96.8171L112.145 102.259V98.7967L131.046 93.3555V96.8171Z" fill="#727578"/>
<path d="M131.046 88.5148L112.145 94.4508V90.9888L131.046 85.0527V88.5148Z" fill="#727578"/>
<path d="M131.046 80.214L112.145 86.6448V83.1832L131.046 76.752V80.214Z" fill="#727578"/>
<path d="M131.046 71.9113L112.145 78.8369V75.3748L131.046 68.4492V71.9113Z" fill="#727578"/>
<path d="M131.046 63.6081L112.145 71.0285V67.5664L131.046 60.1465V63.6081Z" fill="#727578"/>
<path d="M131.046 55.3058L112.145 63.2205V59.7584L131.046 51.8438V55.3058Z" fill="#727578"/>
<path d="M131.046 47.0026L112.145 55.4116V51.9505L131.046 43.541V47.0026Z" fill="#727578"/>
<path d="M131.046 38.6999L112.145 47.6041V44.1421L131.046 35.2383V38.6999Z" fill="#727578"/>
<path d="M131.046 30.3976L112.145 39.7962V36.3341L131.046 26.9355V30.3976Z" fill="#727578"/>
<path d="M131.046 22.0949L112.145 31.9883V28.5262L131.046 18.6328V22.0949Z" fill="#727578"/>
</g>
<defs>
<linearGradient id="paint0_linear_8837_177542" x1="250.412" y1="189.813" x2="250.412" y2="144.195" gradientUnits="userSpaceOnUse">
<stop stop-color="#4D4D4D"/>
<stop offset="1" stop-color="#989898"/>
</linearGradient>
<linearGradient id="paint1_linear_8837_177542" x1="235.244" y1="189.813" x2="235.244" y2="144.195" gradientUnits="userSpaceOnUse">
<stop stop-color="#D8D8D8"/>
<stop offset="1" stop-color="white"/>
</linearGradient>
<linearGradient id="paint2_linear_8837_177542" x1="235.326" y1="190.662" x2="235.326" y2="68.0155" gradientUnits="userSpaceOnUse">
<stop stop-color="#4D4D4D"/>
<stop offset="1" stop-color="#989898"/>
</linearGradient>
<linearGradient id="paint3_linear_8837_177542" x1="221.908" y1="190.662" x2="221.908" y2="68.0155" gradientUnits="userSpaceOnUse">
<stop stop-color="#D8D8D8"/>
<stop offset="1" stop-color="white"/>
</linearGradient>
<linearGradient id="paint4_linear_8837_177542" x1="22.4296" y1="190.971" x2="22.4296" y2="138.033" gradientUnits="userSpaceOnUse">
<stop stop-color="#4D4D4D"/>
<stop offset="1" stop-color="#989898"/>
</linearGradient>
<linearGradient id="paint5_linear_8837_177542" x1="7.47643" y1="190.971" x2="7.47643" y2="138.033" gradientUnits="userSpaceOnUse">
<stop stop-color="#D8D8D8"/>
<stop offset="1" stop-color="white"/>
</linearGradient>
<linearGradient id="paint6_linear_8837_177542" x1="44.0584" y1="192.369" x2="44.0584" y2="36.9866" gradientUnits="userSpaceOnUse">
<stop stop-color="#4D4D4D"/>
<stop offset="1" stop-color="#989898"/>
</linearGradient>
<linearGradient id="paint7_linear_8837_177542" x1="27.0583" y1="192.369" x2="27.0583" y2="36.9866" gradientUnits="userSpaceOnUse">
<stop stop-color="#D8D8D8"/>
<stop offset="1" stop-color="white"/>
</linearGradient>
<linearGradient id="paint8_linear_8837_177542" x1="219.172" y1="191.227" x2="219.172" y2="49.658" gradientUnits="userSpaceOnUse">
<stop stop-color="#4D4D4D"/>
<stop offset="1" stop-color="#989898"/>
</linearGradient>
<linearGradient id="paint9_linear_8837_177542" x1="206.148" y1="191.227" x2="206.148" y2="49.658" gradientUnits="userSpaceOnUse">
<stop stop-color="#D8D8D8"/>
<stop offset="1" stop-color="white"/>
</linearGradient>
<linearGradient id="paint10_linear_8837_177542" x1="196.549" y1="192.054" x2="196.549" y2="12.7087" gradientUnits="userSpaceOnUse">
<stop stop-color="#4D4D4D"/>
<stop offset="1" stop-color="#989898"/>
</linearGradient>
<linearGradient id="paint11_linear_8837_177542" x1="177.014" y1="192.054" x2="177.014" y2="12.7087" gradientUnits="userSpaceOnUse">
<stop stop-color="#D8D8D8"/>
<stop offset="1" stop-color="white"/>
</linearGradient>
<linearGradient id="paint12_linear_8837_177542" x1="172.2" y1="194.408" x2="172.2" y2="131.959" gradientUnits="userSpaceOnUse">
<stop stop-color="#4D4D4D"/>
<stop offset="1" stop-color="#989898"/>
</linearGradient>
<linearGradient id="paint13_linear_8837_177542" x1="153.111" y1="194.408" x2="153.111" y2="131.959" gradientUnits="userSpaceOnUse">
<stop stop-color="#D8D8D8"/>
<stop offset="1" stop-color="white"/>
</linearGradient>
<linearGradient id="paint14_linear_8837_177542" x1="67.5701" y1="192.369" x2="67.5701" y2="36.9866" gradientUnits="userSpaceOnUse">
<stop stop-color="#4D4D4D"/>
<stop offset="1" stop-color="#989898"/>
</linearGradient>
<linearGradient id="paint15_linear_8837_177542" x1="50.5702" y1="192.369" x2="50.5702" y2="36.9866" gradientUnits="userSpaceOnUse">
<stop stop-color="#D8D8D8"/>
<stop offset="1" stop-color="white"/>
</linearGradient>
<linearGradient id="paint16_linear_8837_177542" x1="92.2304" y1="192.638" x2="92.2304" y2="0.000183714" gradientUnits="userSpaceOnUse">
<stop stop-color="#4D4D4D"/>
<stop offset="1" stop-color="#989898"/>
</linearGradient>
<linearGradient id="paint17_linear_8837_177542" x1="72.1056" y1="192.638" x2="72.1056" y2="0.000183714" gradientUnits="userSpaceOnUse">
<stop stop-color="#D8D8D8"/>
<stop offset="1" stop-color="white"/>
</linearGradient>
<linearGradient id="paint18_linear_8837_177542" x1="116.808" y1="194.879" x2="116.808" y2="132.43" gradientUnits="userSpaceOnUse">
<stop stop-color="#4D4D4D"/>
<stop offset="1" stop-color="#989898"/>
</linearGradient>
<linearGradient id="paint19_linear_8837_177542" x1="96.0419" y1="194.879" x2="96.0419" y2="132.43" gradientUnits="userSpaceOnUse">
<stop stop-color="#D8D8D8"/>
<stop offset="1" stop-color="white"/>
</linearGradient>
<linearGradient id="paint20_linear_8837_177542" x1="145.192" y1="194.88" x2="145.192" y2="4.70724" gradientUnits="userSpaceOnUse">
<stop stop-color="#4D4D4D"/>
<stop offset="1" stop-color="#989898"/>
</linearGradient>
<linearGradient id="paint21_linear_8837_177542" x1="121.599" y1="194.88" x2="121.599" y2="4.70724" gradientUnits="userSpaceOnUse">
<stop stop-color="#D8D8D8"/>
<stop offset="1" stop-color="white"/>
</linearGradient>
</defs>
</svg>
